<mxfile host="Electron" modified="2023-09-07T23:12:28.853Z" agent="Mozilla/5.0 (Macintosh; Intel Mac OS X 10_15_7) AppleWebKit/537.36 (KHTML, like Gecko) draw.io/21.6.8 Chrome/114.0.5735.289 Electron/25.5.0 Safari/537.36" etag="wveu41igaGPamI2wIhSZ" version="21.6.8" type="device">
  <diagram name="Page-1" id="TmXlkxsdpuQp6UV1L1TF">
    <mxGraphModel dx="588" dy="401" grid="1" gridSize="10" guides="1" tooltips="1" connect="1" arrows="1" fold="1" page="1" pageScale="1" pageWidth="850" pageHeight="1100" math="0" shadow="0">
      <root>
        <mxCell id="0" />
        <mxCell id="1" parent="0" />
        <mxCell id="ba-Bq80Gi6VDvch43wfu-2" value="" style="shape=curlyBracket;whiteSpace=wrap;html=1;rounded=1;labelPosition=left;verticalLabelPosition=middle;align=right;verticalAlign=middle;strokeWidth=1;rotation=0;" parent="1" vertex="1">
          <mxGeometry x="195" y="310" width="20" height="120" as="geometry" />
        </mxCell>
        <UserObject label="&lt;font size=&quot;1&quot; style=&quot;&quot;&gt;&lt;b style=&quot;font-size: 9px;&quot;&gt;n genes = 5000&lt;/b&gt;&lt;/font&gt;" placeholders="1" name="Variable" id="ba-Bq80Gi6VDvch43wfu-7">
          <mxCell style="text;html=1;strokeColor=none;fillColor=none;align=center;verticalAlign=middle;whiteSpace=wrap;overflow=hidden;" parent="1" vertex="1">
            <mxGeometry x="110" y="340" width="90" height="60" as="geometry" />
          </mxCell>
        </UserObject>
        <mxCell id="ba-Bq80Gi6VDvch43wfu-32" value="" style="shape=image;aspect=fixed;image=data:image/png,iVBORw0KGgoAAAANSUhEUgAABJ4AAASyCAYAAAD3fSGnAAAMPmlDQ1BJQ0MgUHJvZmlsZQAASImVVwdYU8kWnltSIbQAAlJCb4JIDSAlhBZ6R7ARkgChxBgIKnZkUcG1oGIBG7oqomAFxI7YWRR7XyyoKOtiwa68SQFd95XvzffNnf/+c+Y/Z87MLQOA+nGuWJyLagCQJyqQxIUEMMakpDJITwEZ6AIKsAYjuLx8MSsmJgLAMtj+vby7DhBZe8VBpvXP/v9aNPmCfB4ASAzE6fx8Xh7E+wHAq3liSQEARBlvPqVALMOwAm0JDBDiBTKcqcDVMpyuwLvlNglxbIjbACCrcrmSTADULkGeUcjLhBpqfRA7ifhCEQDqDIh98/Im8SFOg9gG2oghlukz03/QyfybZvqQJpebOYQVc5EXcqAwX5zLnfZ/puN/l7xc6aAPK1hVsyShcbI5w7zdzJkULsOqEPeK0qOiIdaC+IOQL7eHGKVmSUMTFfaoIS+fDXMGVxqgTnxuYDjEhhAHi3KjIpR8eoYwmAMx3CHoVGEBJwFiPYgXCPKD4pU2GyWT4pS+0MYMCZul5M9yJXK/Ml/3pTmJLKX+6ywBR6mPqRVlJSRDTIXYolCYFAWxGsSO+Tnx4Uqb0UVZ7KhBG4k0Tha/BcRxAlFIgEIfK8yQBMcp7cvy8gfni23MEnKilHhvQVZCqCI/WBuPK48fzgW7JBCxEgd1BPljIgbnwhcEBinmjj0TiBLjlTofxAUBcYqxOFWcG6O0x80EuSEy3gxi1/zCeOVYPKkAbkiFPp4hLohJUMSJF2Vzw2IU8eBLQQRgg0DAAFJY08EkkA2EHb1NvfBO0RMMuEACMoEAOCiZwRHJ8h4RvMaDIvAnRAKQPzQuQN4rAIWQ/zrEKq4OIEPeWygfkQOeQJwHwkEuvJfKR4mGvCWBx5AR/sM7F1YejDcXVln/v+cH2e8MCzIRSkY66JGhPmhJDCIGEkOJwURb3AD3xb3xCHj1h9UZZ+Keg/P4bk94QugkPCRcI3QRbk0UFkt+ijISdEH9YGUu0n/MBW4FNd3wANwHqkNlXBc3AA64K/TDwv2gZzfIspVxy7LC+En7bzP4YTWUdhQnCkoZRvGn2Pw8Us1OzW1IRZbrH/OjiDV9KN/soZ6f/bN/yD4ftuE/W2ILsH3YGewEdg47jDUBBnYMa8basSMyPLS7Hst316C3OHk8OVBH+A9/gysry2S+U51Tj9MXRV+BYKrsHQ3Yk8TTJMLMrAIGC34RBAyOiOc4guHs5OwCgOz7onh9vYmVfzcQ3fbv3Lw/APA5NjAwcOg7F3YMgD0e8PE/+J2zYcJPhwoAZw/ypJJCBYfLLgT4llCHT5o+MAbmwAbOxxm4A2/gD4JAGIgGCSAFTIDRZ8F9LgFTwAwwF5SCcrAUrARrwQawGWwHu8Be0AQOgxPgNLgALoFr4A7cPd3gBegD78BnBEFICA2hI/qICWKJ2CPOCBPxRYKQCCQOSUHSkExEhEiRGcg8pBypQNYim5BaZA9yEDmBnEM6kVvIA6QHeY18QjFUFdVGjVArdCTKRFloOJqAjkcz0cloEVqCLkZXozXoTrQRPYFeQK+hXegLtB8DmAqmi5liDhgTY2PRWCqWgUmwWVgZVonVYPVYC1znK1gX1ot9xIk4HWfgDnAHh+KJOA+fjM/CF+Fr8e14I96GX8Ef4H34NwKNYEiwJ3gROIQxhEzCFEIpoZKwlXCAcAo+S92Ed0QiUZdoTfSAz2IKMZs4nbiIuI7YQDxO7CQ+IvaTSCR9kj3JhxRN4pIKSKWkNaSdpGOky6Ru0geyCtmE7EwOJqeSReRiciV5B/ko+TL5KfkzRYNiSfGiRFP4lGmUJZQtlBbKRUo35TNVk2pN9aEmULOpc6mrqfXUU9S71DcqKipmKp4qsSpClTkqq1V2q5xVeaDyUVVL1U6VrTpOVaq6WHWb6nHVW6pvaDSaFc2flkoroC2m1dJO0u7TPqjR1RzVOGp8tdlqVWqNapfVXqpT1C3VWeoT1IvUK9X3qV9U79WgaFhpsDW4GrM0qjQOatzQ6Neka47SjNbM01ykuUPznOYzLZKWlVaQFl+rRGuz1kmtR3SMbk5n03n0efQt9FP0bm2itrU2Rztbu1x7l3aHdp+Olo6rTpLOVJ0qnSM6XbqYrpUuRzdXd4nuXt3rup+GGQ1jDRMMWzisftjlYe/1huv56wn0yvQa9K7pfdJn6Afp5+gv02/Sv2eAG9gZxBpMMVhvcMqgd7j2cO/hvOFlw/cOv22IGtoZxhlON9xs2G7Yb2RsFGIkNlpjdNKo11jX2N8423iF8VHjHhO6ia+J0GSFyTGT5wwdBouRy1jNaGP0mRqahppKTTeZdph+NrM2SzQrNmswu2dONWeaZ5ivMG8177MwsYi0mGFRZ3HbkmLJtMyyXGV5xvK9lbVVstV8qyarZ9Z61hzrIus667s2NBs/m8k2NTZXbYm2TNsc23W2l+xQOze7LLsqu4v2qL27vdB+nX3nCMIIzxGiETUjbjioOrAcCh3qHB446jpGOBY7Njm+HGkxMnXkspFnRn5zcnPKddridGeU1qiwUcWjWka9drZz5jlXOV91obkEu8x2aXZ55WrvKnBd73rTje4W6TbfrdXtq7uHu8S93r3Hw8IjzaPa4wZTmxnDXMQ860nwDPCc7XnY86OXu1eB116vv7wdvHO8d3g/G209WjB6y+hHPmY+XJ9NPl2+DN80342+XX6mfly/Gr+H/ub+fP+t/k9Ztqxs1k7WywCnAEnAgYD3bC/2TPbxQCwwJLAssCNIKygxaG3Q/WCz4MzguuC+ELeQ6SHHQwmh4aHLQm9wjDg8Ti2nL8wjbGZYW7hqeHz42vCHEXYRkoiWSDQyLHJ55N0oyyhRVFM0iOZEL4++F2MdMznmUCwxNia2KvZJ3Ki4GXFn4unxE+N3xL9LCEhYknAn0SZRmtiapJ40Lqk26X1yYHJFcteYkWNmjrmQYpAiTGlOJaUmpW5N7R8bNHbl2O5xbuNKx10fbz1+6vhzEwwm5E44MlF9InfivjRCWnLajrQv3GhuDbc/nZNend7HY/NW8V7w/fkr+D0CH0GF4GmGT0ZFxrNMn8zlmT1ZflmVWb1CtnCt8FV2aPaG7Pc50TnbcgZyk3Mb8sh5aXkHRVqiHFHbJONJUyd1iu3FpeKuyV6TV07uk4RLtuYj+ePzmwu04Y98u9RG+ov0QaFvYVXhhylJU/ZN1Zwqmto+zW7awmlPi4KLfpuOT+dNb51hOmPujAczWTM3zUJmpc9qnW0+u2R295yQOdvnUufmzP292Km4ovjtvOR5LSVGJXNKHv0S8ktdqVqppPTGfO/5GxbgC4QLOha6LFyz8FsZv+x8uVN5ZfmXRbxF538d9evqXwcWZyzuWOK+ZP1S4lLR0uvL/JZtr9CsKKp4tDxyeeMKxoqyFW9XTlx5rtK1csMq6irpqq7VEaub11isWbrmy9qstdeqAqoaqg2rF1a/X8dfd3m9//r6DUYbyjd82ijceHNTyKbGGquays3EzYWbn2xJ2nLmN+ZvtVsNtpZv/bpNtK1re9z2tlqP2todhjuW1KF10rqeneN2XtoVuKu53qF+U4NuQ/lusFu6+/metD3X94bvbd3H3Fe/33J/9QH6gbJGpHFaY19TVlNXc0pz58Gwg60t3i0HDjke2nbY9HDVEZ0jS45Sj5YcHThWdKz/uPh474nME49aJ7beOTnm5NW22LaOU+Gnzp4OPn3yDOvMsbM+Zw+f8zp38DzzfNMF9wuN7W7tB353+/1Ah3tH40WPi82XPC+1dI7uPHrZ7/KJK4FXTl/lXL1wLepa5/XE6zdvjLvRdZN/89mt3Fuvbhfe/nxnzl3C3bJ7Gvcq7xver/nD9o+GLveuIw8CH7Q/jH945xHv0YvH+Y+/dJc8oT2pfGrytPaZ87PDPcE9l56Pfd79Qvzic2/pn5p/Vr+0ebn/L/+/2vvG9HW/krwaeL3ojf6bbW9d37b2x/Tff5f37vP7sg/6H7Z/ZH488yn509PPU76Qvqz+avu15Vv4t7sDeQMDYq6EK/8VwGBFMzIAeL0NAFoKAHR4PqOOVZz/5AVRnFnlCPwnrDgjyos7APXw/z22F/7d3ABg9xZ4/IL66uMAiKEBkOAJUBeXoTp4VpOfK2WFCM8BG2O+puelg39TFGfOH+L+uQUyVVfwc/sv5h98hL53vUcAAACWZVhJZk1NACoAAAAIAAUBEgADAAAAAQABAAABGgAFAAAAAQAAAEoBGwAFAAAAAQAAAFIBKAADAAAAAQACAACHaQAEAAAAAQAAAFoAAAAAAAAAkAAAAAEAAACQAAAAAQADkoYABwAAABIAAACEoAIABAAAAAEAAASeoAMABAAAAAEAAASyAAAAAEFTQ0lJAAAAU2NyZWVuc2hvdISzGsEAAAAJcEhZcwAAFiUAABYlAUlSJPAAAALZaVRYdFhNTDpjb20uYWRvYmUueG1wAAAAAAA8eDp4bXBtZXRhIHhtbG5zOng9ImFkb2JlOm5zOm1ldGEvIiB4OnhtcHRrPSJYTVAgQ29yZSA2LjAuMCI+CiAgIDxyZGY6UkRGIHhtbG5zOnJkZj0iaHR0cDovL3d3dy53My5vcmcvMTk5OS8wMi8yMi1yZGYtc3ludGF4LW5zIyI+CiAgICAgIDxyZGY6RGVzY3JpcHRpb24gcmRmOmFib3V0PSIiCiAgICAgICAgICAgIHhtbG5zOmV4aWY9Imh0dHA6Ly9ucy5hZG9iZS5jb20vZXhpZi8xLjAvIgogICAgICAgICAgICB4bWxuczp0aWZmPSJodHRwOi8vbnMuYWRvYmUuY29tL3RpZmYvMS4wLyI+CiAgICAgICAgIDxleGlmOlBpeGVsWERpbWVuc2lvbj4xMTgyPC9leGlmOlBpeGVsWERpbWVuc2lvbj4KICAgICAgICAgPGV4aWY6VXNlckNvbW1lbnQ+U2NyZWVuc2hvdDwvZXhpZjpVc2VyQ29tbWVudD4KICAgICAgICAgPGV4aWY6UGl4ZWxZRGltZW5zaW9uPjEyMDI8L2V4aWY6UGl4ZWxZRGltZW5zaW9uPgogICAgICAgICA8dGlmZjpSZXNvbHV0aW9uVW5pdD4yPC90aWZmOlJlc29sdXRpb25Vbml0PgogICAgICAgICA8dGlmZjpZUmVzb2x1dGlvbj4xNDQ8L3RpZmY6WVJlc29sdXRpb24+CiAgICAgICAgIDx0aWZmOlhSZXNvbHV0aW9uPjE0NDwvdGlmZjpYUmVzb2x1dGlvbj4KICAgICAgICAgPHRpZmY6T3JpZW50YXRpb24+MTwvdGlmZjpPcmllbnRhdGlvbj4KICAgICAgPC9yZGY6RGVzY3JpcHRpb24+CiAgIDwvcmRmOlJERj4KPC94OnhtcG1ldGE+CrUGcWMAAEAASURBVHgB7No7EcNAEAVBy2X+eIRAIJQ5cG4G+mHYyfoAvKBro6lb9u//eHkECBAgQIAAAQIECBAgQIAAAQIEhgXew3vmCBAgQIAAAQIECBAgQIAAAQIECDwCwpNDIECAAAECBAgQIECAAAECBAgQSASEp4TVKAECBAgQIECAAAECBAgQIECAgPDkBggQIECAAAECBAgQIECAAAECBBIB4SlhNUqAAAECBAgQIECAAAECBAgQICA8uQECBAgQIECAAAECBAgQIECAAIFEQHhKWI0SIECAAAECBAgQIECAAAECBAgIT26AAAECBAgQIECAAAECBAgQIEAgERCeElajBAgQIECAAAECBAgQIECAAAECwpMbIECAAAECBAgQIECAAAECBAgQSASEp4TVKAECBAgQIECAAAECBAgQIECAgPDkBggQIECAAAECBAgQIECAAAECBBIB4SlhNUqAAAECBAgQIECAAAECBAgQICA8uQECBAgQIECAAAECBAgQIECAAIFEQHhKWI0SIECAAAECBAgQIECAAAECBAgIT26AAAECBAgQIECAAAECBAgQIEAgERCeElajBAgQIECAAAECBAgQIECAAAECwpMbIECAAAECBAgQIECAAAECBAgQSASEp4TVKAECBAgQIECAAAECBAgQIECAgPDkBggQIECAAAECBAgQIECAAAECBBIB4SlhNUqAAAECBAgQIECAAAECBAgQICA8uQECBAgQIECAAAECBAgQIECAAIFEQHhKWI0SIECAAAECBAgQIECAAAECBAgIT26AAAECBAgQIECAAAECBAgQIEAgERCeElajBAgQIECAAAECBAgQIECAAAECwpMbIECAAAECBAgQIECAAAECBAgQSASEp4TVKAECBAgQIECAAAECBAgQIECAgPDkBggQIECAAAECBAgQIECAAAECBBIB4SlhNUqAAAECBAgQIECAAAECBAgQICA8uQECBAgQIECAAAECBAgQIECAAIFEQHhKWI0SIECAAAECBAgQIECAAAECBAgIT26AAAECBAgQIECAAAECBAgQIEAgERCeElajBAgQIECAAAECBAgQIECAAAECwpMbIECAAAECBAgQIECAAAECBAgQSASEp4TVKAECBAgQIECAAAECBAgQIECAgPDkBggQIECAAAECBAgQIECAAAECBBIB4SlhNUqAAAECBAgQIECAAAECBAgQICA8uQECBAgQIECAAAECBAgQIECAAIFEQHhKWI0SIECAAAECBAgQIECAAAECBAgIT26AAAECBAgQIECAAAECBAgQIEAgERCeElajBAgQIECAAAECBAgQIECAAAECwpMbIECAAAECBAgQIECAAAECBAgQSASEp4TVKAECBAgQIECAAAECBAgQIECAgPDkBggQIECAAAECBAgQIECAAAECBBIB4SlhNUqAAAECBAgQIECAAAECBAgQICA8uQECBAgQIECAAAECBAgQIECAAIFEQHhKWI0SIECAAAECBAgQIECAAAECBAgIT26AAAECBAgQIECAAAECBAgQIEAgERCeElajBAgQIECAAAECBAgQIECAAAECwpMbIECAAAECBAgQIECAAAECBAgQSASEp4TVKAECBAgQIECAAAECBAgQIECAgPDkBggQIECAAAECBAgQIECAAAECBBIB4SlhNUqAAAECBAgQIECAAAECBAgQICA8uQECBAgQIECAAAECBAgQIECAAIFEQHhKWI0SIECAAAECBAgQIECAAAECBAgIT26AAAECBAgQIECAAAECBAgQIEAgERCeElajBAgQIECAAAECBAgQIECAAAECwpMbIECAAAECBAgQIECAAAECBAgQSASEp4TVKAECBAgQIECAAAECBAgQIECAgPDkBggQIECAAAECBAgQIECAAAECBBIB4SlhNUqAAAECBAgQIECAAAECBAgQICA8uQECBAgQIECAAAECBAgQIECAAIFEQHhKWI0SIECAAAECBAgQIECAAAECBAgIT26AAAECBAgQIECAAAECBAgQIEAgERCeElajBAgQIECAAAECBAgQIECAAAECwpMbIECAAAECBAgQIECAAAECBAgQSASEp4TVKAECBAgQIECAAAECBAgQIECAgPDkBggQIECAAAECBAgQIECAAAECBBIB4SlhNUqAAAECBAgQIECAAAECBAgQICA8uQECBAgQIECAAAECBAgQIECAAIFEQHhKWI0SIECAAAECBAgQIECAAAECBAgIT26AAAECBAgQIECAAAECBAgQIEAgERCeElajBAgQIECAAAECBAgQIECAAAECwpMbIECAAAECBAgQIECAAAECBAgQSASEp4TVKAECBAgQIECAAAECBAgQIECAgPDkBggQIECAAAECBAgQIECAAAECBBIB4SlhNUqAAAECBAgQIECAAAECBAgQICA8uQECBAgQIECAAAECBAgQIECAAIFEQHhKWI0SIECAAAECBAgQIECAAAECBAgIT26AAAECBAgQIECAAAECBAgQIEAgERCeElajBAgQIECAAAECBAgQIECAAAECwpMbIECAAAECBAgQIECAAAECBAgQSASEp4TVKAECBAgQIECAAAECBAgQIECAgPDkBggQIECAAAECBAgQIECAAAECBBIB4SlhNUqAAAECBAgQIECAAAECBAgQICA8uQECBAgQIECAAAECBAgQIECAAIFEQHhKWI0SIECAAAECBAgQIECAAAECBAgIT26AAAECBAgQIECAAAECBAgQIEAgERCeElajBAgQIECAAAECBAgQIECAAAECwpMbIECAAAECBAgQIECAAAECBAgQSASEp4TVKAECBAgQIECAAAECBAgQIECAgPDkBggQIECAAAECBAgQIECAAAECBBIB4SlhNUqAAAECBAgQIECAAAECBAgQICA8uQECBAgQIECAAAECBAgQIECAAIFEQHhKWI0SIECAAAECBAgQIECAAAECBAgIT26AAAECBAgQIECAAAECBAgQIEAgERCeElajBAgQIECAAAECBAgQIECAAAECwpMbIECAAAECBAgQIECAAAECBAgQSASEp4TVKAECBAgQIECAAAECBAgQIECAgPDkBggQIECAAAECBAgQIECAAAECBBIB4SlhNUqAAAECBAgQIECAAAECBAgQICA8uQECBAgQIECAAAECBAgQIECAAIFEQHhKWI0SIECAAAECBAgQIECAAAECBAgIT26AAAECBAgQIECAAAECBAgQIEAgERCeElajBAgQIECAAAECBAgQIECAAAECwpMbIECAAAECBAgQIECAAAECBAgQSASEp4TVKAECBAgQIECAAAECBAgQIECAgPDkBggQIECAAAECBAgQIECAAAECBBIB4SlhNUqAAAECBAgQIECAAAECBAgQICA8uQECBAgQIECAAAECBAgQIECAAIFEQHhKWI0SIECAAAECBAgQIECAAAECBAgIT26AAAECBAgQIECAAAECBAgQIEAgERCeElajBAgQIECAAAECBAgQIECAAAECwpMbIECAAAECBAgQIECAAAECBAgQSASEp4TVKAECBAgQIECAAAECBAgQIECAgPDkBggQIECAAAECBAgQIECAAAECBBIB4SlhNUqAAAECBAgQIECAAAECBAgQICA8uQECBAgQIECAAAECBAgQIECAAIFEQHhKWI0SIECAAAECBAgQIECAAAECBAgIT26AAAECBAgQIECAAAECBAgQIEAgERCeElajBAgQIECAAAECBAgQIECAAAECwpMbIECAAAECBAgQIECAAAECBAgQSASEp4TVKAECBAgQIECAAAECBAgQIECAgPDkBggQIECAAAECBAgQIECAAAECBBIB4SlhNUqAAAECBAgQIECAAAECBAgQICA8uQECBAgQIECAAAECBAgQIECAAIFEQHhKWI0SIECAAAECBAgQIECAAAECBAgIT26AAAECBAgQIECAAAECBAgQIEAgERCeElajBAgQIECAAAECBAgQIECAAAECwpMbIECAAAECBAgQIECAAAECBAgQSASEp4TVKAECBAgQIECAAAECBAgQIECAgPDkBggQIECAAAECBAgQIECAAAECBBIB4SlhNUqAAAECBAgQIECAAAECBAgQICA8uQECBAgQIECAAAECBAgQIECAAIFEQHhKWI0SIECAAAECBAgQIECAAAECBAgIT26AAAECBAgQIECAAAECBAgQIEAgERCeElajBAgQIECAAAECBAgQIECAAAECwpMbIECAAAECBAgQIECAAAECBAgQSASEp4TVKAECBAgQIECAAAECBAgQIECAgPDkBggQIECAAAECBAgQIECAAAECBBIB4SlhNUqAAAECBAgQIECAAAECBAgQICA8uQECBAgQIECAAAECBAgQIECAAIFEQHhKWI0SIECAAAECBAgQIECAAAECBAgIT26AAAECBAgQIECAAAECBAgQIEAgERCeElajBAgQIECAAAECBAgQIECAAAECwpMbIECAAAECBAgQIECAAAECBAgQSASEp4TVKAECBAgQIECAAAECBAgQIECAgPDkBggQIECAAAECBAgQIECAAAECBBIB4SlhNUqAAAECBAgQIECAAAECBAgQICA8uQECBAgQIECAAAECBAgQIECAAIFEQHhKWI0SIECAAAECBAgQIECAAAECBAgIT26AAAECBAgQIECAAAECBAgQIEAgERCeElajBAgQIECAAAECBAgQIECAAAECwpMbIECAAAECBAgQIECAAAECBAgQSASEp4TVKAECBAgQIECAAAECBAgQIECAgPDkBggQIECAAAECBAgQIECAAAECBBIB4SlhNUqAAAECBAgQIECAAAECBAgQICA8uQECBAgQIECAAAECBAgQIECAAIFEQHhKWI0SIECAAAECBAgQIECAAAECBAgIT26AAAECBAgQIECAAAECBAgQIEAgERCeElajBAgQIECAAAECBAgQIECAAAECwpMbIECAAAECBAgQIECAAAECBAgQSASEp4TVKAECBAgQIECAAAECBAgQIECAgPDkBggQIECAAAECBAgQIECAAAECBBIB4SlhNUqAAAECBAgQIECAAAECBAgQICA8uQECBAgQIECAAAECBAgQIECAAIFEQHhKWI0SIECAAAECBAgQIECAAAECBAgIT26AAAECBAgQIECAAAECBAgQIEAgERCeElajBAgQIECAAAECBAgQIECAAAECwpMbIECAAAECBAgQIECAAAECBAgQSASEp4TVKAECBAgQIECAAAECBAgQIECAgPDkBggQIECAAAECBAgQIECAAAECBBIB4SlhNUqAAAECBAgQIECAAAECBAgQICA8uQECBAgQIECAAAECBAgQIECAAIFEQHhKWI0SIECAAAECBAgQIECAAAECBAgIT26AAAECBAgQIECAAAECBAgQIEAgERCeElajBAgQIECAAAECBAgQIECAAAECwpMbIECAAAECBAgQIECAAAECBAgQSASEp4TVKAECBAgQIECAAAECBAgQIECAgPDkBggQIECAAAECBAgQIECAAAECBBIB4SlhNUqAAAECBAgQIECAAAECBAgQICA8uQECBAgQIECAAAECBAgQIECAAIFEQHhKWI0SIECAAAECBAgQIECAAAECBAgIT26AAAECBAgQIECAAAECBAgQIEAgERCeElajBAgQIECAAAECBAgQIECAAAECwpMbIECAAAECBAgQIECAAAECBAgQSASEp4TVKAECBAgQIECAAAECBAgQIECAgPDkBggQIECAAAECBAgQIECAAAECBBIB4SlhNUqAAAECBAgQIECAAAECBAgQICA8uQECBAgQIECAAAECBAgQIECAAIFEQHhKWI0SIECAAAECBAgQIECAAAECBAgIT26AAAECBAgQIECAAAECBAgQIEAgERCeElajBAgQIECAAAECBAgQIECAAAECwpMbIECAAAECBAgQIECAAAECBAgQSASEp4TVKAECBAgQIECAAAECBAgQIECAgPDkBggQIECAAAECBAgQIECAAAECBBIB4SlhNUqAAAECBAgQIECAAAECBAgQICA8uQECBAgQIECAAAECBAgQIECAAIFEQHhKWI0SIECAAAECBAgQIECAAAECBAgIT26AAAECBAgQIECAAAECBAgQIEAgERCeElajBAgQIECAAAECBAgQIECAAAECwpMbIECAAAECBAgQIECAAAECBAgQSASEp4TVKAECBAgQIECAAAECBAgQIECAgPDkBggQIECAAAECBAgQIECAAAECBBIB4SlhNUqAAAECBAgQIECAAAECBAgQICA8uQECBAgQIECAAAECBAgQIECAAIFEQHhKWI0SIECAAAECBAgQIECAAAECBAgIT26AAAECBAgQIECAAAECBAgQIEAgERCeElajBAgQIECAAAECBAgQIECAAAECwpMbIECAAAECBAgQIECAAAECBAgQSASEp4TVKAECBAgQIECAAAECBAgQIECAgPDkBggQIECAAAECBAgQIECAAAECBBIB4SlhNUqAAAECBAgQIECAAAECBAgQICA8uQECBAgQIECAAAECBAgQIECAAIFEQHhKWI0SIECAAAECBAgQIECAAAECBAgIT26AAAECBAgQIECAAAECBAgQIEAgERCeElajBAgQIECAAAECBAgQIECAAAECwpMbIECAAAECBAgQIECAAAECBAgQSASEp4TVKAECBAgQIECAAAECBAgQIECAgPDkBggQIECAAAECBAgQIECAAAECBBIB4SlhNUqAAAECBAgQIECAAAECBAgQICA8uQECBAgQIECAAAECBAgQIECAAIFEQHhKWI0SIECAAAECBAgQIECAAAECBAgIT26AAAECBAgQIECAAAECBAgQIEAgERCeElajBAgQIECAAAECBAgQIECAAAECwpMbIECAAAECBAgQIECAAAECBAgQSASEp4TVKAECBAgQIECAAAECBAgQIECAgPDkBggQIECAAAECBAgQIECAAAECBBIB4SlhNUqAAAECBAgQIECAAAECBAgQICA8uQECBAgQIECAAAECBAgQIECAAIFEQHhKWI0SIECAAAECBAgQIECAAAECBAgIT26AAAECBAgQIECAAAECBAgQIEAgERCeElajBAgQIECAAAECBAgQIECAAAECwpMbIECAAAECBAgQIECAAAECBAgQSASEp4TVKAECBAgQIECAAAECBAgQIECAgPDkBggQIECAAAECBAgQIECAAAECBBIB4SlhNUqAAAECBAgQIECAAAECBAgQICA8uQECBAgQIECAAAECBAgQIECAAIFEQHhKWI0SIECAAAECBAgQIECAAAECBAgIT26AAAECBAgQIECAAAECBAgQIEAgERCeElajBAgQIECAAAECBAgQIECAAAECwpMbIECAAAECBAgQIECAAAECBAgQSASEp4TVKAECBAgQIECAAAECBAgQIECAgPDkBggQIECAAAECBAgQIECAAAECBBIB4SlhNUqAAAECBAgQIECAAAECBAgQICA8uQECBAgQIECAAAECBAgQIECAAIFEQHhKWI0SIECAAAECBAgQIECAAAECBAgIT26AAAECBAgQIECAAAECBAgQIEAgERCeElajBAgQIECAAAECBAgQIECAAAECwpMbIECAAAECBAgQIECAAAECBAgQSASEp4TVKAECBAgQIECAAAECBAgQIECAgPDkBggQIECAAAECBAgQIECAAAECBBIB4SlhNUqAAAECBAgQIECAAAECBAgQICA8uQECBAgQIECAAAECBAgQIECAAIFEQHhKWI0SIECAAAECBAgQIECAAAECBAgIT26AAAECBAgQIECAAAECBAgQIEAgERCeElajBAgQIECAAAECBAgQIECAAAECwpMbIECAAAECBAgQIECAAAECBAgQSASEp4TVKAECBAgQIECAAAECBAgQIECAgPDkBggQIECAAAECBAgQIECAAAECBBIB4SlhNUqAAAECBAgQIECAAAECBAgQICA8uQECBAgQIECAAAECBAgQIECAAIFEQHhKWI0SIECAAAECBAgQIECAAAECBAgIT26AAAECBAgQIECAAAECBAgQIEAgERCeElajBAgQIECAAAECBAgQIECAAAECwpMbIECAAAECBAgQIECAAAECBAgQSASEp4TVKAECBAgQIECAAAECBAgQIECAgPDkBggQIECAAAECBAgQIECAAAECBBIB4SlhNUqAAAECBAgQIECAAAECBAgQICA8uQECBAgQIECAAAECBAgQIECAAIFEQHhKWI0SIECAAAECBAgQIECAAAECBAgIT26AAAECBAgQIECAAAECBAgQIEAgERCeElajBAgQIECAAAECBAgQIECAAAECwpMbIECAAAECBAgQIECAAAECBAgQSASEp4TVKAECBAgQIECAAAECBAgQIECAgPDkBggQIECAAAECBAgQIECAAAECBBIB4SlhNUqAAAECBAgQIECAAAECBAgQICA8uQECBAgQIECAAAECBAgQIECAAIFEQHhKWI0SIECAAAECBAgQIECAAAECBAgIT26AAAECBAgQIECAAAECBAgQIEAgERCeElajBAgQIECAAAECBAgQIECAAAECwpMbIECAAAECBAgQIECAAAECBAgQSASEp4TVKAECBAgQIECAAAECBAgQIECAgPDkBggQIECAAAECBAgQIECAAAECBBIB4SlhNUqAAAECBAgQIECAAAECBAgQICA8uQECBAgQIECAAAECBAgQIECAAIFEQHhKWI0SIECAAAECBAgQIECAAAECBAgIT26AAAECBAgQIECAAAECBAgQIEAgERCeElajBAgQIECAAAECBAgQIECAAAECwpMbIECAAAECBAgQIECAAAECBAgQSASEp4TVKAECBAgQIECAAAECBAgQIECAgPDkBggQIECAAAECBAgQIECAAAECBBIB4SlhNUqAAAECBAgQIECAAAECBAgQICA8uQECBAgQIECAAAECBAgQIECAAIFEQHhKWI0SIECAAAECBAgQIECAAAECBAgIT26AAAECBAgQIECAAAECBAgQIEAgERCeElajBAgQIECAAAECBAgQIECAAAECwpMbIECAAAECBAgQIECAAAECBAgQSASEp4TVKAECBAgQIECAAAECBAgQIECAgPDkBggQIECAAAECBAgQIECAAAECBBIB4SlhNUqAAAECBAgQIECAAAECBAgQICA8uQECBAgQIECAAAECBAgQIECAAIFEQHhKWI0SIECAAAECBAgQIECAAAECBAgIT26AAAECBAgQIECAAAECBAgQIEAgERCeElajBAgQIECAAAECBAgQIECAAAECwpMbIECAAAECBAgQIECAAAECBAgQSASEp4TVKAECBAgQIECAAAECBAgQIECAgPDkBggQIECAAAECBAgQIECAAAECBBIB4SlhNUqAAAECBAgQIECAAAECBAgQICA8uQECBAgQIECAAAECBAgQIECAAIFEQHhKWI0SIECAAAECBAgQIECAAAECBAgIT26AAAECBAgQIECAAAECBAgQIEAgERCeElajBAgQIECAAAECBAgQIECAAAECwpMbIECAAAECBAgQIECAAAECBAgQSASEp4TVKAECBAgQIECAAAECBAgQIECAgPDkBggQIECAAAECBAgQIECAAAECBBIB4SlhNUqAAAECBAgQIECAAAECBAgQICA8uQECBAgQIECAAAECBAgQIECAAIFEQHhKWI0SIECAAAECBAgQIECAAAECBAgIT26AAAECBAgQIECAAAECBAgQIEAgERCeElajBAgQIECAAAECBAgQIECAAAECwpMbIECAAAECBAgQIECAAAECBAgQSASEp4TVKAECBAgQIECAAAECBAgQIECAgPDkBggQIECAAAECBAgQIECAAAECBBIB4SlhNUqAAAECBAgQIECAAAECBAgQICA8uQECBAgQIECAAAECBAgQIECAAIFEQHhKWI0SIECAAAECBAgQIECAAAECBAgIT26AAAECBAgQIECAAAECBAgQIEAgERCeElajBAgQIECAAAECBAgQIECAAAECwpMbIECAAAECBAgQIECAAAECBAgQSASEp4TVKAECBAgQIECAAAECBAgQIECAgPDkBggQIECAAAECBAgQIECAAAECBBIB4SlhNUqAAAECBAgQIECAAAECBAgQICA8uQECBAgQIECAAAECBAgQIECAAIFEQHhKWI0SIECAAAECBAgQIECAAAECBAgIT26AAAECBAgQIECAAAECBAgQIEAgERCeElajBAgQIECAAAECBAgQIECAAAECwpMbIECAAAECBAgQIECAAAECBAgQSASEp4TVKAECBAgQIECAAAECBAgQIECAgPDkBggQIECAAAECBAgQIECAAAECBBIB4SlhNUqAAAECBAgQIECAAAECBAgQICA8uQECBAgQIECAAAECBAgQIECAAIFEQHhKWI0SIECAAAECBAgQIECAAAECBAgIT26AAAECBAgQIECAAAECBAgQIEAgERCeElajBAgQIECAAAECBAgQIECAAAECwpMbIECAAAECBAgQIECAAAECBAgQSASEp4TVKAECBAgQIECAAAECBAgQIECAgPDkBggQIECAAAECBAgQIECAAAECBBIB4SlhNUqAAAECBAgQIECAAAECBAgQICA8uQECBAgQIECAAAECBAgQIECAAIFEQHhKWI0SIECAAAECBAgQIECAAAECBAgIT26AAAECBAgQIECAAAECBAgQIEAgERCeElajBAgQIECAAAECBAgQIECAAAECwpMbIECAAAECBAgQIECAAAECBAgQSASEp4TVKAECBAgQIECAAAECBAgQIECAgPDkBggQIECAAAECBAgQIECAAAECBBIB4SlhNUqAAAECBAgQIECAAAECBAgQICA8uQECBAgQIECAAAECBAgQIECAAIFEQHhKWI0SIECAAAECBAgQIECAAAECBAgIT26AAAECBAgQIECAAAECBAgQIEAgERCeElajBAgQIECAAAECBAgQIECAAAECwpMbIECAAAECBAgQIECAAAECBAgQSASEp4TVKAECBAgQIECAAAECBAgQIECAgPDkBggQIECAAAECBAgQIECAAAECBBIB4SlhNUqAAAECBAgQIECAAAECBAgQICA8uQECBAgQIECAAAECBAgQIECAAIFEQHhKWI0SIECAAAECBAgQIECAAAECBAgIT26AAAECBAgQIECAAAECBAgQIEAgERCeElajBAgQIECAAAECBAgQIECAAAECwpMbIECAAAECBAgQIECAAAECBAgQSASEp4TVKAECBAgQIECAAAECBAgQIECAgPDkBggQIECAAAECBAgQIECAAAECBBIB4SlhNUqAAAECBAgQIECAAAECBAgQICA8uQECBAgQIECAAAECBAgQIECAAIFEQHhKWI0SIECAAAECBAgQIECAAAECBAgIT26AAAECBAgQIECAAAECBAgQIEAgERCeElajBAgQIECAAAECBAgQIECAAAECwpMbIECAAAECBAgQIECAAAECBAgQSASEp4TVKAECBAgQIECAAAECBAgQIECAgPDkBggQIECAAAECBAgQIECAAAECBBIB4SlhNUqAAAECBAgQIECAAAECBAgQICA8uQECBAgQIECAAAECBAgQIECAAIFEQHhKWI0SIECAAAECBAgQIECAAAECBAgIT26AAAECBAgQIECAAAECBAgQIEAgERCeElajBAgQIECAAAECBAgQIECAAAECwpMbIECAAAECBAgQIECAAAECBAgQSASEp4TVKAECBAgQIECAAAECBAgQIECAgPDkBggQIECAAAECBAgQIECAAAECBBIB4SlhNUqAAAECBAgQIECAAAECBAgQICA8uQECBAgQIECAAAECBAgQIECAAIFEQHhKWI0SIECAAAECBAgQIECAAAECBAgIT26AAAECBAgQIECAAAECBAgQIEAgERCeElajBAgQIECAAAECBAgQIECAAAECwpMbIECAAAECBAgQIECAAAECBAgQSASEp4TVKAECBAgQIECAAAECBAgQIECAgPDkBggQIECAAAECBAgQIECAAAECBBIB4SlhNUqAAAECBAgQIECAAAECBAgQICA8uQECBAgQIECAAAECBAgQIECAAIFEQHhKWI0SIECAAAECBAgQIECAAAECBAgIT26AAAECBAgQIECAAAECBAgQIEAgERCeElajBAgQIECAAAECBAgQIECAAAECwpMbIECAAAECBAgQIECAAAECBAgQSASEp4TVKAECBAgQIECAAAECBAgQIECAgPDkBggQIECAAAECBAgQIECAAAECBBIB4SlhNUqAAAECBAgQIECAAAECBAgQICA8uQECBAgQIECAAAECBAgQIECAAIFEQHhKWI0SIECAAAECBAgQIECAAAECBAgIT26AAAECBAgQIECAAAECBAgQIEAgERCeElajBAgQIECAAAECBAgQIECAAAECwpMbIECAAAECBAgQIECAAAECBAgQSASEp4TVKAECBAgQIECAAAECBAgQIECAgPDkBggQIECAAAECBAgQIECAAAECBBIB4SlhNUqAAAECBAgQIECAAAECBAgQICA8uQECBAgQIECAAAECBAgQIECAAIFEQHhKWI0SIECAAAECBAgQIECAAAECBAgIT26AAAECBAgQIECAAAECBAgQIEAgERCeElajBAgQIECAAAECBAgQIECAAAECwpMbIECAAAECBAgQIECAAAECBAgQSASEp4TVKAECBAgQIECAAAECBAgQIECAgPDkBggQIECAAAECBAgQIECAAAECBBIB4SlhNUqAAAECBAgQIECAAAECBAgQICA8uQECBAgQIECAAAECBAgQIECAAIFEQHhKWI0SIECAAAECBAgQIECAAAECBAgIT26AAAECBAgQIECAAAECBAgQIEAgERCeElajBAgQIECAAAECBAgQIECAAAECwpMbIECAAAECBAgQIECAAAECBAgQSASEp4TVKAECBAgQIECAAAECBAgQIECAgPDkBggQIECAAAECBAgQIECAAAECBBIB4SlhNUqAAAECBAgQIECAAAECBAgQICA8uQECBAgQIECAAAECBAgQIECAAIFEQHhKWI0SIECAAAECBAgQIECAAAECBAgIT26AAAECBAgQIECAAAECBAgQIEAgERCeElajBAgQIECAAAECBAgQIECAAAECwpMbIECAAAECBAgQIECAAAECBAgQSASEp4TVKAECBAgQIECAAAECBAgQIECAgPDkBggQIECAAAECBAgQIECAAAECBBIB4SlhNUqAAAECBAgQIECAAAECBAgQICA8uQECBAgQIECAAAECBAgQIECAAIFEQHhKWI0SIECAAAECBAgQIECAAAECBAgIT26AAAECBAgQIECAAAECBAgQIEAgERCeElajBAgQIECAAAECBAgQIECAAAECwpMbIECAAAECBAgQIECAAAECBAgQSASEp4TVKAECBAgQIECAAAECBAgQIECAgPDkBggQIECAAAECBAgQIECAAAECBBIB4SlhNUqAAAECBAgQIECAAAECBAgQICA8uQECBAgQIECAAAECBAgQIECAAIFEQHhKWI0SIECAAAECBAgQIECAAAECBAgIT26AAAECBAgQIECAAAECBAgQIEAgERCeElajBAgQIECAAAECBAgQIECAAAECwpMbIECAAAECBAgQIECAAAECBAgQSASEp4TVKAECBAgQIECAAAECBAgQIECAgPDkBggQIECAAAECBAgQIECAAAECBBIB4SlhNUqAAAECBAgQIECAAAECBAgQICA8uQECBAgQIECAAAECBAgQIECAAIFEQHhKWI0SIECAAAECBAgQIECAAAECBAgIT26AAAECBAgQIECAAAECBAgQIEAgERCeElajBAgQIECAAAECBAgQIECAAAECwpMbIECAAAECBAgQIECAAAECBAgQSASEp4TVKAECBAgQIECAAAECBAgQIECAgPDkBggQIECAAAECBAgQIECAAAECBBIB4SlhNUqAAAECBAgQIECAAAECBAgQICA8uQECBAgQIECAAAECBAgQIECAAIFEQHhKWI0SIECAAAECBAgQIECAAAECBAgIT26AAAECBAgQIECAAAECBAgQIEAgERCeElajBAgQIECAAAECBAgQIECAAAECwpMbIECAAAECBAgQIECAAAECBAgQSASEp4TVKAECBAgQIECAAAECBAgQIECAgPDkBggQIECAAAECBAgQIECAAAECBBIB4SlhNUqAAAECBAgQIECAAAECBAgQICA8uQECBAgQIECAAAECBAgQIECAAIFEQHhKWI0SIECAAAECBAgQIECAAAECBAgIT26AAAECBAgQIECAAAECBAgQIEAgERCeElajBAgQIECAAAECBAgQIECAAAECwpMbIECAAAECBAgQIECAAAECBAgQSASEp4TVKAECBAgQIECAAAECBAgQIECAgPDkBggQIECAAAECBAgQIECAAAECBBIB4SlhNUqAAAECBAgQIECAAAECBAgQICA8uQECBAgQIECAAAECBAgQIECAAIFEQHhKWI0SIECAAAECBAgQIECAAAECBAgIT26AAAECBAgQIECAAAECBAgQIEAgERCeElajBAgQIECAAAECBAgQIECAAAECwpMbIECAAAECBAgQIECAAAECBAgQSASEp4TVKAECBAgQIECAAAECBAgQIECAgPDkBggQIECAAAECBAgQIECAAAECBBIB4SlhNUqAAAECBAgQIECAAAECBAgQICA8uQECBAgQIECAAAECBAgQIECAAIFEQHhKWI0SIECAAAECBAgQIECAAAECBAgIT26AAAECBAgQIECAAAECBAgQIEAgERCeElajBAgQIECAAAECBAgQIECAAAECwpMbIECAAAECBAgQIECAAAECBAgQSASEp4TVKAECBAgQIECAAAECBAgQIECAgPDkBggQIECAAAECBAgQIECAAAECBBIB4SlhNUqAAAECBAgQIECAAAECBAgQICA8uQECBAgQIECAAAECBAgQIECAAIFEQHhKWI0SIECAAAECBAgQIECAAAECBAgIT26AAAECBAgQIECAAAECBAgQIEAgERCeElajBAgQIECAAAECBAgQIECAAAECwpMbIECAAAECBAgQIECAAAECBAgQSASEp4TVKAECBAgQIECAAAECBAgQIECAgPDkBggQIECAAAECBAgQIECAAAECBBIB4SlhNUqAAAECBAgQIECAAAECBAgQICA8uQECBAgQIECAAAECBAgQIECAAIFEQHhKWI0SIECAAAECBAgQIECAAAECBAgIT26AAAECBAgQIECAAAECBAgQIEAgERCeElajBAgQIECAAAECBAgQIECAAAECwpMbIECAAAECBAgQIECAAAECBAgQSASEp4TVKAECBAgQIECAAAECBAgQIECAgPDkBggQIECAAAECBAgQIECAAAECBBIB4SlhNUqAAAECBAgQIECAAAECBAgQICA8uQECBAgQIECAAAECBAgQIECAAIFEQHhKWI0SIECAAAECBAgQIECAAAECBAgIT26AAAECBAgQIECAAAECBAgQIEAgERCeElajBAgQIECAAAECBAgQIECAAAECwpMbIECAAAECBAgQIECAAAECBAgQSASEp4TVKAECBAgQIECAAAECBAgQIECAgPDkBggQIECAAAECBAgQIECAAAECBBIB4SlhNUqAAAECBAgQIECAAAECBAgQICA8uQECBAgQIECAAAECBAgQIECAAIFEQHhKWI0SIECAAAECBAgQIECAAAECBAgIT26AAAECBAgQIECAAAECBAgQIEAgERCeElajBAgQIECAAAECBAgQIECAAAECwpMbIECAAAECBAgQIECAAAECBAgQSASEp4TVKAECBAgQIECAAAECBAgQIECAgPDkBggQIECAAAECBAgQIECAAAECBBIB4SlhNUqAAAECBAgQIECAAAECBAgQICA8uQECBAgQIECAAAECBAgQIECAAIFEQHhKWI0SIECAAAECBAgQIECAAAECBAgIT26AAAECBAgQIECAAAECBAgQIEAgERCeElajBAgQIECAAAECBAgQIECAAAECwpMbIECAAAECBAgQIECAAAECBAgQSASEp4TVKAECBAgQIECAAAECBAgQIECAgPDkBggQIECAAAECBAgQIECAAAECBBIB4SlhNUqAAAECBAgQIECAAAECBAgQICA8uQECBAgQIECAAAECBAgQIECAAIFEQHhKWI0SIECAAAECBAgQIECAAAECBAgIT26AAAECBAgQIECAAAECBAgQIEAgERCeElajBAgQIECAAAECBAgQIECAAAECwpMbIECAAAECBAgQIECAAAECBAgQSASEp4TVKAECBAgQIECAAAECBAgQIECAgPDkBggQIECAAAECBAgQIECAAAECBBIB4SlhNUqAAAECBAgQIECAAAECBAgQICA8uQECBAgQIECAAAECBAgQIECAAIFEQHhKWI0SIECAAAECBAgQIECAAAECBAgIT26AAAECBAgQIECAAAECBAgQIEAgERCeElajBAgQIECAAAECBAgQIECAAAECwpMbIECAAAECBAgQIECAAAECBAgQSASEp4TVKAECBAgQIECAAAECBAgQIECAgPDkBggQIECAAAECBAgQIECAAAECBBIB4SlhNUqAAAECBAgQIECAAAECBAgQICA8uQECBAgQIECAAAECBAgQIECAAIFEQHhKWI0SIECAAAECBAgQIECAAAECBAgIT26AAAECBAgQIECAAAECBAgQIEAgERCeElajBAgQIECAAAECBAgQIECAAAECwpMbIECAAAECBAgQIECAAAECBAgQSASEp4TVKAECBAgQIECAAAECBAgQIECAgPDkBggQIECAAAECBAgQIECAAAECBBIB4SlhNUqAAAECBAgQIECAAAECBAgQICA8uQECBAgQIECAAAECBAgQIECAAIFEQHhKWI0SIECAAAECBAgQIECAAAECBAgIT26AAAECBAgQIECAAAECBAgQIEAgERCeElajBAgQIECAAAECBAgQIECAAAECwpMbIECAAAECBAgQIECAAAECBAgQSASEp4TVKAECBAgQIECAAAECBAgQIECAgPDkBggQIECAAAECBAgQIECAAAECBBIB4SlhNUqAAAECBAgQIECAAAECBAgQICA8uQECBAgQIECAAAECBAgQIECAAIFEQHhKWI0SIECAAAECBAgQIECAAAECBAgIT26AAAECBAgQIECAAAECBAgQIEAgERCeElajBAgQIECAAAECBAgQIECAAAECwpMbIECAAAECBAgQIECAAAECBAgQSASEp4TVKAECBAgQIECAAAECBAgQIECAgPDkBggQIECAAAECBAgQIECAAAECBBIB4SlhNUqAAAECBAgQIECAAAECBAgQICA8uQECBAgQIECAAAECBAgQIECAAIFEQHhKWI0SIECAAAECBAgQIECAAAECBAgIT26AAAECBAgQIECAAAECBAgQIEAgERCeElajBAgQIECAAAECBAgQIECAAAECwpMbIECAAAECBAgQIECAAAECBAgQSASEp4TVKAECBAgQIECAAAECBAgQIECAgPDkBggQIECAAAECBAgQIECAAAECBBIB4SlhNUqAAAECBAgQIECAAAECBAgQICA8uQECBAgQIECAAAECBAgQIECAAIFEQHhKWI0SIECAAAECBAgQIECAAAECBAgIT26AAAECBAgQIECAAAECBAgQIEAgERCeElajBAgQIECAAAECBAgQIECAAAECwpMbIECAAAECBAgQIECAAAECBAgQSASEp4TVKAECBAgQIECAAAECBAgQIECAgPDkBggQIECAAAECBAgQIECAAAECBBIB4SlhNUqAAAECBAgQIECAAAECBAgQICA8uQECBAgQIECAAAECBAgQIECAAIFEQHhKWI0SIECAAAECBAgQIECAAAECBAgIT26AAAECBAgQIECAAAECBAgQIEAgERCeElajBAgQIECAAAECBAgQIECAAAECwpMbIECAAAECBAgQIECAAAECBAgQSASEp4TVKAECBAgQIECAAAECBAgQIECAgPDkBggQIECAAAECBAgQIECAAAECBBIB4SlhNUqAAAECBAgQIECAAAECBAgQICA8uQECBAgQIECAAAECBAgQIECAAIFEQHhKWI0SIECAAAECBAgQIECAAAECBAgIT26AAAECBAgQIECAAAECBAgQIEAgERCeElajBAgQIECAAAECBAgQIECAAAECwpMbIECAAAECBAgQIECAAAECBAgQSASEp4TVKAECBAgQIECAAAECBAgQIECAgPDkBggQIECAAAECBAgQIECAAAECBBIB4SlhNUqAAAECBAgQIECAAAECBAgQICA8uQECBAgQIECAAAECBAgQIECAAIFEQHhKWI0SIECAAAECBAgQIECAAAECBAgIT26AAAECBAgQIECAAAECBAgQIEAgERCeElajBAgQIECAAAECBAgQIECAAAECwpMbIECAAAECBAgQIECAAAECBAgQSASEp4TVKAECBAgQIECAAAECBAgQIECAgPDkBggQIECAAAECBAgQIECAAAECBBIB4SlhNUqAAAECBAgQIECAAAECBAgQICA8uQECBAgQIECAAAECBAgQIECAAIFEQHhKWI0SIECAAAECBAgQIECAAAECBAgIT26AAAECBAgQIECAAAECBAgQIEAgERCeElajBAgQIECAAAECBAgQIECAAAECwpMbIECAAAECBAgQIECAAAECBAgQSASEp4TVKAECBAgQIECAAAECBAgQIECAgPDkBggQIECAAAECBAgQIECAAAECBBIB4SlhNUqAAAECBAgQIECAAAECBAgQICA8uQECBAgQIECAAAECBAgQIECAAIFEQHhKWI0SIECAAAECBAgQIECAAAECBAgIT26AAAECBAgQIECAAAECBAgQIEAgERCeElajBAgQIECAAAECBAgQIECAAAECwpMbIECAAAECBAgQIECAAAECBAgQSASEp4TVKAECBAgQIECAAAECBAgQIECAgPDkBggQIECAAAECBAgQIECAAAECBBIB4SlhNUqAAAECBAgQIECAAAECBAgQICA8uQECBAgQIECAAAECBAgQIECAAIFEQHhKWI0SIECAAAECBAgQIECAAAECBAgIT26AAAECBAgQIECAAAECBAgQIEAgERCeElajBAgQIECAAAECBAgQIECAAAECwpMbIECAAAECBAgQIECAAAECBAgQSASEp4TVKAECBAgQIECAAAECBAgQIECAgPDkBggQIECAAAECBAgQIECAAAECBBIB4SlhNUqAAAECBAgQIECAAAECBAgQICA8uQECBAgQIECAAAECBAgQIECAAIFEQHhKWI0SIECAAAECBAgQIECAAAECBAgIT26AAAECBAgQIECAAAECBAgQIEAgERCeElajBAgQIECAAAECBAgQIECAAAECwpMbIECAAAECBAgQIECAAAECBAgQSASEp4TVKAECBAgQIECAAAECBAgQIECAgPDkBggQIECAAAECBAgQIECAAAECBBIB4SlhNUqAAAECBAgQIECAAAECBAgQICA8uQECBAgQIECAAAECBAgQIECAAIFEQHhKWI0SIECAAAECBAgQIECAAAECBAgIT26AAAECBAgQIECAAAECBAgQIEAgERCeElajBAgQIECAAAECBAgQIECAAAECwpMbIECAAAECBAgQIECAAAECBAgQSASEp4TVKAECBAgQIECAAAECBAgQIECAgPDkBggQIECAAAECBAgQIECAAAECBBIB4SlhNUqAAAECBAgQIECAAAECBAgQICA8uQECBAgQIECAAAECBAgQIECAAIFEQHhKWI0SIECAAAECBAgQIECAAAECBAgIT26AAAECBAgQIECAAAECBAgQIEAgERCeElajBAgQIECAAAECBAgQIECAAAECwpMbIECAAAECBAgQIECAAAECBAgQSASEp4TVKAECBAgQIECAAAECBAgQIECAgPDkBggQIECAAAECBAgQIECAAAECBBIB4SlhNUqAAAECBAgQIECAAAECBAgQICA8uQECBAgQIECAAAECBAgQIECAAIFEQHhKWI0SIECAAAECBAgQIECAAAECBAgIT26AAAECBAgQIECAAAECBAgQIEAgERCeElajBAgQIECAAAECBAgQIECAAAECwpMbIECAAAECBAgQIECAAAECBAgQSASEp4TVKAECBAgQIECAAAECBAgQIECAgPDkBggQIECAAAECBAgQIECAAAECBBIB4SlhNUqAAAECBAgQIECAAAECBAgQICA8uQECBAgQIECAAAECBAgQIECAAIFEQHhKWI0SIECAAAECBAgQIECAAAECBAgIT26AAAECBAgQIECAAAECBAgQIEAgERCeElajBAgQIECAAAECBAgQIECAAAECwpMbIECAAAECBAgQIECAAAECBAgQSASEp4TVKAECBAgQIECAAAECBAgQIECAgPDkBggQIECAAAECBAgQIECAAAECBBIB4SlhNUqAAAECBAgQIECAAAECBAgQICA8uQECBAgQIECAAAECBAgQIECAAIFEQHhKWI0SIECAAAECBAgQIECAAAECBAgIT26AAAECBAgQIECAAAECBAgQIEAgERCeElajBAgQIECAAAECBAgQIECAAAECwpMbIECAAAECBAgQIECAAAECBAgQSASEp4TVKAECBAgQIECAAAECBAgQIECAgPDkBggQIECAAAECBAgQIECAAAECBBIB4SlhNUqAAAECBAgQIECAAAECBAgQICA8uQECBAgQIECAAAECBAgQIECAAIFEQHhKWI0SIECAAAECBAgQIECAAAECBAgIT26AAAECBAgQIECAAAECBAgQIEAgERCeElajBAgQIECAAAECBAgQIECAAAECwpMbIECAAAECBAgQIECAAAECBAgQSASEp4TVKAECBAgQIECAAAECBAgQIECAgPDkBggQIECAAAECBAgQIECAAAECBBIB4SlhNUqAAAECBAgQIECAAAECBAgQICA8uQECBAgQIECAAAECBAgQIECAAIFEQHhKWI0SIECAAAECBAgQIECAAAECBAgIT26AAAECBAgQIECAAAECBAgQIEAgERCeElajBAgQIECAAAECBAgQIECAAAECwpMbIECAAAECBAgQIECAAAECBAgQSASEp4TVKAECBAgQIECAAAECBAgQIECAwHJcDwMBAgQIECBAgAABAgQIECBAgACBaQE/nqZF7REgQIAAAQIECBAgQIAAAQIECDwCwpNDIECAAAECBAgQIECAAAECBAgQSASEp4TVKAECBAgQIECAAAECBAgQIECAgPDkBggQIECAAAECBAgQIECAAAECBBIB4SlhNUqAAAECBAgQIECAAAECBAgQICA8uQECBAgQIECAAAECBAgQIECAAIFEQHhKWI0SIECAAAECBAgQIECAAAECBAgIT26AAAECBAgQIECAAAECBAgQIEAgERCeElajBAgQIECAAAECBAgQIECAAAECwpMbIECAAAECBAgQIECAAAECBAgQSASEp4TVKAECBAgQIECAAAECBAgQIECAgPDkBggQIECAAAECBAgQIECAAAECBBIB4SlhNUqAAAECBAgQIECAAAECBAgQICA8uQECBAjvAJvBAAArxUlEQVQQIECAAAECBAgQIECAAIFEQHhKWI0SIECAAAECBAgQIECAAAECBAgIT26AAAECBAgQIECAAAECBAgQIEAgERCeElajBAgQIECAAAECBAgQIECAAAECwpMbIECAAAECBAgQIECAAAECBAgQSASEp4TVKAECBAgQIECAAAECBAgQIECAgPDkBggQIECAAAECBAgQIECAAAECBBIB4SlhNUqAAAECBAgQIECAAAECBAgQIPBZtx8FAgQIECBAgAABAgQIECBAgAABAuMCfjyNkxokQIAAAQIECBAgQIAAAQIECBC4BYQnd0CAAAECBAgQIECAAAECBAgQIJAICE8Jq1ECBAgQIECAAAECBAgQIECAAAHhyQ0QIECAAAECBAgQIECAAAECBAgkAsJTwmqUAAECBAgQIECAAAECBAgQIEBAeHIDBAgQIECAAAECBAgQIECAAAECiYDwlLAaJUCAAAECBAgQIECAAAECBAgQEJ7cAAECBAgQIECAAAECBAgQIECAQCIgPCWsRgkQIECAAAECBAgQIECAAAECBIQnN0CAAAECBAgQIECAAAECBAgQIJAICE8Jq1ECBAgQIECAAAECBAgQIECAAAHhyQ0QIECAAAECBAgQIECAAAECBAgkAsJTwmqUAAECBAgQIECAAAECBAgQIEBAeHIDBAgQIECAAAECBAgQIECAAAECiYDwlLAaJUCAAAECBAgQIECAAAECBAgQEJ7cAAECBAgQIECAAAECBAgQIECAQCIgPCWsRgkQIECAAAECBAgQIECAAAECBIQnN0CAAAECBAgQIECAAAECBAgQIJAICE8Jq1ECBAgQIECAAAECBAgQIECAAAHhyQ0QIECAAAECBAgQIECAAAECBAgkAsJTwmqUAAECBAgQIECAAAECBAgQIEBAeHIDBAgQIECAAAECBAgQIECAAAECiYDwlLAaJUCAAAECBAgQIECAAAECBAgQEJ7cAAECBAgQIECAAAECBAgQIECAQCIgPCWsRgkQIECAAAECBAgQIECAAAECBIQnN0CAAAECBAgQIECAAAECBAgQIJAICE8Jq1ECBAgQIECAAAECBAgQIECAAAHhyQ0QIECAAAECBAgQIECAAAECBAgkAsJTwmqUAAECBAgQIECAAAECBAgQIEBAeHIDBAgQIECAAAECBAgQIECAAAECiYDwlLAaJUCAAAECBAgQIECAAAECBAgQEJ7cAAECBAgQIECAAAECBAgQIECAQCIgPCWsRgkQIECAAAECBAgQIECAAAECBIQnN0CAAAECBAgQIECAAAECBAgQIJAICE8Jq1ECBAgQIECAAAECBAgQIECAAAHhyQ0QIECAAAECBAgQIECAAAECBAgkAsJTwmqUAAECBAgQIECAAAECBAgQIEBAeHIDBAgQIECAAAECBAgQIECAAAECiYDwlLAaJUCAAAECBAgQIECAAAECBAgQEJ7cAAECBAgQIECAAAECBAgQIECAQCIgPCWsRgkQIECAAAECBAgQIECAAAECBIQnN0CAAAECBAgQIECAAAECBAgQIJAICE8Jq1ECBAgQIECAAAECBAgQIECAAAHhyQ0QIECAAAECBAgQIECAAAECBAgkAsJTwmqUAAECBAgQIECAAAECBAgQIEBAeHIDBAgQIECAAAECBAgQIECAAAECiYDwlLAaJUCAAAECBAgQIECAAAECBAgQEJ7cAAECBAgQIECAAAECBAgQIECAQCIgPCWsRgkQIECAAAECBAgQIECAAAECBIQnN0CAAAECBAgQIECAAAECBAgQIJAICE8Jq1ECBAgQIECAAAECBAgQIECAAAHhyQ0QIECAAAECBAgQIECAAAECBAgkAsJTwmqUAAECBAgQIECAAAECBAgQIEBAeHIDBAgQIECAAAECBAgQIECAAAECiYDwlLAaJUCAAAECBAgQIECAAAECBAgQEJ7cAAECBAgQIECAAAECBAgQIECAQCIgPCWsRgkQIECAAAECBAgQIECAAAECBIQnN0CAAAECBAgQIECAAAECBAgQIJAICE8Jq1ECBAgQIECAAAECBAgQIECAAAHhyQ0QIECAAAECBAgQIECAAAECBAgkAsJTwmqUAAECBAgQIECAAAECBAgQIEBAeHIDBAgQIECAAAECBAgQIECAAAECiYDwlLAaJUCAAAECBAgQIECAAAECBAgQEJ7cAAECBAgQIECAAAECBAgQIECAQCIgPCWsRgkQIECAAAECBAgQIECAAAECBIQnN0CAAAECBAgQIECAAAECBAgQIJAICE8Jq1ECBAgQIECAAAECBAgQIECAAAHhyQ0QIECAAAECBAgQIECAAAECBAgkAsJTwmqUAAECBAgQIECAAAECBAgQIEBAeHIDBAgQIECAAAECBAgQIECAAAECiYDwlLAaJUCAAAECBAgQIECAAAECBAgQEJ7cAAECBAgQIECAAAECBAgQIECAQCIgPCWsRgkQIECAAAECBAgQIECAAAECBIQnN0CAAAECBAgQIECAAAECBAgQIJAICE8Jq1ECBAgQIECAAAECBAgQIECAAAHhyQ0QIECAAAECBAgQIECAAAECBAgkAsJTwmqUAAECBAgQIECAAAECBAgQIEBAeHIDBAgQIECAAAECBAgQIECAAAECiYDwlLAaJUCAAAECBAgQIECAAAECBAgQEJ7cAAECBAgQIECAAAECBAgQIECAQCIgPCWsRgkQIECAAAECBAgQIECAAAECBIQnN0CAAAECBAgQIECAAAECBAgQIJAICE8Jq1ECBAgQIECAAAECBAgQIECAAAHhyQ0QIECAAAECBAgQIECAAAECBAgkAsJTwmqUAAECBAgQIECAAAECBAgQIEBAeHIDBAgQIECAAAECBAgQIECAAAECiYDwlLAaJUCAAAECBAgQIECAAAECBAgQEJ7cAAECBAgQIECAAAECBAgQIECAQCIgPCWsRgkQIECAAAECBAgQIECAAAECBIQnN0CAAAECBAgQIECAAAECBAgQIJAICE8Jq1ECBAgQIECAAAECBAgQIECAAAHhyQ0QIECAAAECBAgQIECAAAECBAgkAsJTwmqUAAECBAgQIECAAAECBAgQIEBAeHIDBAgQIECAAAECBAgQIECAAAECiYDwlLAaJUCAAAECBAgQIECAAAECBAgQEJ7cAAECBAgQIECAAAECBAgQIECAQCIgPCWsRgkQIECAAAECBAgQIECAAAECBIQnN0CAAAECBAgQIECAAAECBAgQIJAICE8Jq1ECBAgQIECAAAECBAgQIECAAAHhyQ0QIECAAAECBAgQIECAAAECBAgkAsJTwmqUAAECBAgQIECAAAECBAgQIEBAeHIDBAgQIECAAAECBAgQIECAAAECiYDwlLAaJUCAAAECBAgQIECAAAECBAgQEJ7cAAECBAgQIECAAAECBAgQIECAQCIgPCWsRgkQIECAAAECBAgQIECAAAECBIQnN0CAAAECBAgQIECAAAECBAgQIJAICE8Jq1ECBAgQIECAAAECBAgQIECAAAHhyQ0QIECAAAECBAgQIECAAAECBAgkAsJTwmqUAAECBAgQIECAAAECBAgQIEBAeHIDBAgQIECAAAECBAgQIECAAAECiYDwlLAaJUCAAAECBAgQIECAAAECBAgQEJ7cAAECBAgQIECAAAECBAgQIECAQCIgPCWsRgkQIECAAAECBAgQIECAAAECBIQnN0CAAAECBAgQIECAAAECBAgQIJAICE8Jq1ECBAgQIECAAAECBAgQIECAAAHhyQ0QIECAAAECBAgQIECAAAECBAgkAsJTwmqUAAECBAgQIECAAAECBAgQIEBAeHIDBAgQIECAAAECBAgQIECAAAECiYDwlLAaJUCAAAECBAgQIECAAAECBAgQEJ7cAAECBAgQIECAAAECBAgQIECAQCIgPCWsRgkQIECAAAECBAgQIECAAAECBIQnN0CAAAECBAgQIECAAAECBAgQIJAICE8Jq1ECBAgQIECAAAECBAgQIECAAAHhyQ0QIECAAAECBAgQIECAAAECBAgkAsJTwmqUAAECBAgQIECAAAECBAgQIEBAeHIDBAgQIECAAAECBAgQIECAAAECiYDwlLAaJUCAAAECBAgQIECAAAECBAgQEJ7cAAECBAgQIECAAAECBAgQIECAQCIgPCWsRgkQIECAAAECBAgQIECAAAECBIQnN0CAAAECBAgQIECAAAECBAgQIJAICE8Jq1ECBAgQIECAAAECBAgQIECAAAHhyQ0QIECAAAECBAgQIECAAAECBAgkAsJTwmqUAAECBAgQIECAAAECBAgQIEBAeHIDBAgQIECAAAECBAgQIECAAAECiYDwlLAaJUCAAAECBAgQIECAAAECBAgQEJ7cAAECBAgQIECAAAECBAgQIECAQCIgPCWsRgkQIECAAAECBAgQIECAAAECBIQnN0CAAAECBAgQIECAAAECBAgQIJAICE8Jq1ECBAgQONu1dxqAYSAKgooU/lVImFHY5GMMt90YwCtGV61MgAABAgQIECBAgAABAsKTGyBAgAABAgQIECBAgAABAgQIEEgEhKeE1SgBAgQIECBAgAABAgQIECBAgIDw5AYIECBAgAABAgQIECBAgAABAgQSAeEpYTVKgAABAgQIECBAgAABAgQIECAgPLkBAgQIECBAgAABAgQIECBAgACBREB4SliNEiBAgAABAgQIECBAgAABAgQICE9ugAABAgQIECBAgAABAgQIECBAIBEQnhJWowQIECBAgAABAgQIECBAgAABAsKTGyBAgAABAgQIECBAgAABAgQIEEgEhKeE1SgBAgQIECBAgAABAgQIECBAgIDw5AYIECBAgAABAgQIECBAgAABAgQSAeEpYTVKgAABAgQIECBAgAABAgQIECAgPLkBAgQIECBAgAABAgQIECBAgACBREB4SliNEiBAgAABAgQIECBAgAABAgQICE9ugAABAgQIECBAgAABAgQIECBAIBEQnhJWowQIECBAgAABAgQIECBAgAABAsKTGyBAgAABAgQIECBAgAABAgQIEEgEhKeE1SgBAgQIECBAgAABAgQIECBAgIDw5AYIECBAgAABAgQIECBAgAABAgQSAeEpYTVKgAABAgQIECBAgAABAgQIECAgPLkBAgQIECBAgAABAgQIECBAgACBREB4SliNEiBAgAABAgQIECBAgAABAgQICE9ugAABAgQIECBAgAABAgQIECBAIBEQnhJWowQIECBAgAABAgQIECBAgAABAsKTGyBAgAABAgQIECBAgAABAgQIEEgEhKeE1SgBAgQIECBAgAABAgQIECBAgIDw5AYIECBAgAABAgQIECBAgAABAgQSAeEpYTVKgAABAgQIECBAgAABAgQIECAgPLkBAgQIECBAgAABAgQIECBAgACBREB4SliNEiBAgAABAgQIECBAgAABAgQICE9ugAABAgQIECBAgAABAgQIECBAIBEQnhJWowQIECBAgAABAgQIECBAgAABAsKTGyBAgAABAgQIECBAgAABAgQIEEgEhKeE1SgBAgQIECBAgAABAgQIECBAgIDw5AYIECBAgAABAgQIECBAgAABAgQSAeEpYTVKgAABAgQIECBAgAABAgQIECAgPLkBAgQIECBAgAABAgQIECBAgACBREB4SliNEiBAgAABAgQIECBAgAABAgQICE9ugAABAgQIECBAgAABAgQIECBAIBEQnhJWowQIECBAgAABAgQIECBAgAABAsKTGyBAgAABAgQIECBAgAABAgQIEEgEhKeE1SgBAgQIECBAgAABAgQIECBAgIDw5AYIECBAgAABAgQIECBAgAABAgQSAeEpYTVKgAABAgQIECBAgAABAgQIECAgPLkBAgQIECBAgAABAgQIECBAgACBREB4SliNEiBAgAABAgQIECBAgAABAgQICE9ugAABAgQIECBAgAABAgQIECBAIBEQnhJWowQIECBAgAABAgQIECBAgAABAsKTGyBAgAABAgQIECBAgAABAgQIEEgEhKeE1SgBAgQIECBAgAABAgQIECBAgIDw5AYIECBAgAABAgQIECBAgAABAgQSAeEpYTVKgAABAgQIECBAgAABAgQIECAgPLkBAgQIECBAgAABAgQIECBAgACBREB4SliNEiBAgAABAgQIECBAgAABAgQICE9ugAABAgQIECBAgAABAgQIECBAIBEQnhJWowQIECBAgAABAgQIECBAgAABAsKTGyBAgAABAgQIECBAgAABAgQIEEgEhKeE1SgBAgQIECBAgAABAgQIECBAgIDw5AYIECBAgAABAgQIECBAgAABAgQSAeEpYTVKgAABAgQIECBAgAABAgQIECAgPLkBAgQIECBAgAABAgQIECBAgACBREB4SliNEiBAgAABAgQIECBAgAABAgQICE9ugAABAgQIECBAgAABAgQIECBAIBEQnhJWowQIECBAgAABAgQIECBAgAABAsKTGyBAgAABAgQIECBAgAABAgQIEEgEhKeE1SgBAgQIECBAgAABAgQIECBAgIDw5AYIECBAgAABAgQIECBAgAABAgQSAeEpYTVKgAABAgQIECBAgAABAgQIECAgPLkBAgQIECBAgAABAgQIECBAgACBREB4SliNEiBAgAABAgQIECBAgAABAgQICE9ugAABAgQIECBAgAABAgQIECBAIBEQnhJWowQIECBAgAABAgQIECBAgAABAsKTGyBAgAABAgQIECBAgAABAgQIEEgEhKeE1SgBAgQIECBAgAABAgQIECBAgIDw5AYIECBAgAABAgQIECBAgAABAgQSAeEpYTVKgAABAgQIECBAgAABAgQIECAgPLkBAgQIECBAgAABAgQIECBAgACBREB4SliNEiBAgAABAgQIECBAgAABAgQICE9ugAABAgQIECBAgAABAgQIECBAIBEQnhJWowQIECBAgAABAgQIECBAgAABAsKTGyBAgAABAgQIECBAgAABAgQIEEgEhKeE1SgBAgQIECBAgAABAgQIECBAgIDw5AYIECBAgAABAgQIECBAgAABAgQSAeEpYTVKgAABAgQIECBAgAABAgQIECAgPLkBAgQIECBAgAABAgQIECBAgACBREB4SliNEiBAgAABAgQIECBAgAABAgQICE9ugAABAgQIECBAgAABAgQIECBAIBEQnhJWowQIECBAgAABAgQIECBAgAABAsKTGyBAgAABAgQIECBAgAABAgQIEEgEhKeE1SgBAgQIECBAgAABAgQIECBAgIDw5AYIECBAgAABAgQIECBAgAABAgQSAeEpYTVKgAABAgQIECBAgAABAgQIECAgPLkBAgQIECBAgAABAgQIECBAgACBREB4SliNEiBAgAABAgQIECBAgAABAgQICE9ugAABAgQIECBAgAABAgQIECBAIBEQnhJWowQIECBAgAABAgQIECBAgAABAsKTGyBAgAABAgQIECBAgAABAgQIEEgEhKeE1SgBAgQIECBAgAABAgQIECBAgIDw5AYIECBAgAABAgQIECBAgAABAgQSAeEpYTVKgAABAgQIECBAgAABAgQIECAgPLkBAgQIECBAgAABAgQIECBAgACBREB4SliNEiBAgAABAgQIECBAgAABAgQICE9ugAABAgQIECBAgAABAgQIECBAIBEQnhJWowQIECBAgAABAgQIECBAgAABAsKTGyBAgAABAgQIECBAgAABAgQIEEgEhKeE1SgBAgQIECBAgAABAgQIECBAgIDw5AYIECBAgAABAgQIECBAgAABAgQSAeEpYTVKgAABAgQIECBAgAABAgQIECAgPLkBAgQIECBAgAABAgQIECBAgACBREB4SliNEiBAgAABAgQIECBAgAABAgQICE9ugAABAgQIECBAgAABAgQIECBAIBEQnhJWowQIECBAgAABAgQIECBAgAABAsKTGyBAgAABAgQIECBAgAABAgQIEEgEhKeE1SgBAgQIECBAgAABAgQIECBAgIDw5AYIECBAgAABAgQIECBAgAABAgQSAeEpYTVKgAABAgQIECBAgAABAgQIECAgPLkBAgQIECBAgAABAgQIECBAgACBREB4SliNEiBAgAABAgQIECBAgAABAgQICE9ugAABAgQIECBAgAABAgQIECBAIBEQnhJWowQIECBAgAABAgQIECBAgAABAsKTGyBAgAABAgQIECBAgAABAgQIEEgEhKeE1SgBAgQIECBAgAABAgQIECBAgIDw5AYIECBAgAABAgQIECBAgAABAgQSAeEpYTVKgAABAgQIECBAgAABAgQIECAgPLkBAgQIECBAgAABAgQIECBAgACBREB4SliNEiBAgAABAgQIECBAgAABAgQICE9ugAABAgQIECBAgAABAgQIECBAIBEQnhJWowQIECBAgAABAgQIECBAgAABAsKTGyBAgAABAgQIECBAgAABAgQIEEgEhKeE1SgBAgQIECBAgAABAgQIECBAgIDw5AYIECBAgAABAgQIECBAgAABAgQSAeEpYTVKgAABAgQIECBAgAABAgQIECAgPLkBAgQIECBAgAABAgQIECBAgACBREB4SliNEiBAgAABAgQIECBAgAABAgQICE9ugAABAgQIECBAgAABAgQIECBAIBEQnhJWowQIECBAgAABAgQIECBAgAABAsKTGyBAgAABAgQIECBAgAABAgQIEEgEhKeE1SgBAgQIECBAgAABAgQIECBAgIDw5AYIECBAgAABAgQIECBAgAABAgQSAeEpYTVKgAABAgQIECBAgAABAgQIECAgPLkBAgQIECBAgAABAgQIECBAgACBREB4SliNEiBAgAABAgQIECBAgAABAgQICE9ugAABAgQIECBAgAABAgQIECBAIBEQnhJWowQIECBAgAABAgQIECBAgAABAsKTGyBAgAABAgQIECBAgAABAgQIEEgEhKeE1SgBAgQIECBAgAABAgQIECBAgIDw5AYIECBAgAABAgQIECBAgAABAgQSAeEpYTVKgAABAgQIECBAgAABAgQIECAgPLkBAgQIECBAgAABAgQIECBAgACBREB4SliNEiBAgAABAgQIECBAgAABAgQICE9ugAABAgQIECBAgAABAgQIECBAIBEQnhJWowQIECBAgAABAgQIECBAgAABAsKTGyBAgAABAgQIECBAgAABAgQIEEgEhKeE1SgBAgQIECBAgAABAgQIECBAgIDw5AYIECBAgAABAgQIECBAgAABAgQSAeEpYTVKgAABAgQIECBAgAABAgQIECAgPLkBAgQIECBAgAABAgQIECBAgACBREB4SliNEiBAgAABAgQIECBAgAABAgQICE9ugAABAgQIECBAgAABAgQIECBAIBEQnhJWowQIECBAgAABAgQIECBAgAABAsKTGyBAgAABAgQIECBAgAABAgQIEEgEhKeE1SgBAgQIECBAgAABAgQIECBAgIDw5AYIECBAgAABAgQIECBAgAABAgQSAeEpYTVKgAABAgQIECBAgAABAgQIECAgPLkBAgQIECBAgAABAgQIECBAgACBREB4SliNEiBAgAABAgQIECBAgAABAgQICE9ugAABAgQIECBAgAABAgQIECBAIBEQnhJWowQIECBAgAABAgQIECBAgAABAsKTGyBAgAABAgQIECBAgAABAgQIEEgEhKeE1SgBAgQIECBAgAABAgQIECBAgIDw5AYIECBAgAABAgQIECBAgAABAgQSAeEpYTVKgAABAgQIECBAgAABAgQIECAgPLkBAgQIECBAgAABAgQIECBAgACBREB4SliNEiBAgAABAgQIECBAgAABAgQICE9ugAABAgQIECBAgAABAgQIECBAIBEQnhJWowQIECBAgAABAgQIECBAgAABAsKTGyBAgAABAgQIECBAgAABAgQIEEgEhKeE1SgBAgQIECBAgAABAgQIECBAgIDw5AYIECBAgAABAgQIECBAgAABAgQSAeEpYTVKgAABAgQIECBAgAABAgQIECAgPLkBAgQIECBAgAABAgQIECBAgACBREB4SliNEiBAgAABAgQIECBAgAABAgQICE9ugAABAgQIECBAgAABAgQIECBAIBEQnhJWowQIECBAgAABAgQIECBAgAABAsKTGyBAgAABAgQIECBAgAABAgQIEEgEhKeE1SgBAgQIECBAgAABAgQIECBAgIDw5AYIECBAgAABAgQIECBAgAABAgQSAeEpYTVKgAABAgQIECBAgAABAgQIECAgPLkBAgQIECBAgAABAgQIECBAgACBREB4SliNEiBAgAABAgQIECBAgAABAgQICE9ugAABAgQIECBAgAABAgQIECBAIBEQnhJWowQIECBAgAABAgQIECBAgAABAsKTGyBAgAABAgQIECBAgAABAgQIEEgEhKeE1SgBAgQIECBAgAABAgQIECBAgIDw5AYIECBAgAABAgQIECBAgAABAgQSAeEpYTVKgAABAgQIECBAgAABAgQIECAgPLkBAgQIECBAgAABAgQIECBAgACBREB4SliNEiBAgAABAgQIECBAgAABAgQICE9ugAABAgQIECBAgAABAgQIECBAIBEQnhJWowQIECBAgAABAgQIECBAgAABAsKTGyBAgAABAgQIECBAgAABAgQIEEgEhKeE1SgBAgQIECBAgAABAgQIECBAgIDw5AYIECBAgAABAgQIECBAgAABAgQSAeEpYTVKgAABAgQIECBAgAABAgQIECAgPLkBAgQIECBAgAABAgQIECBAgACBREB4SliNEiBAgAABAgQIECBAgAABAgQICE9ugAABAgQIECBAgAABAgQIECBAIBEQnhJWowQIECBAgAABAgQIECBAgAABAsKTGyBAgAABAgQIECBAgAABAgQIEEgEhKeE1SgBAgQIECBAgAABAgQIECBAgIDw5AYIECBAgAABAgQIECBAgAABAgQSAeEpYTVKgAABAgQIECBAgAABAgQIECBwPN/DQIAAAQIECBAgQIAAAQIECBAgQGBawI+naVF7BAgQIECAAAECBAgQIECAAAECW0B4cggECBAgQIAAAQIECBAgQIAAAQKJgPCUsBolQIAAAQIECBAgQIAAAQIECBAQntwAAQIECBAgQIAAAQIECBAgQIBAIiA8JaxGCRAgQIAAAQIECBAgQIAAAQIEhCc3QIAAAQIECBAgQIAAAQIECBAgkAgITwmrUQIECBAgQIAAAQIECBAgQIAAAeHJDRAgQIAAAQIECBAgQIAAAQIECCQCwlPCapQAAQIECBAgQIAAAQIECBAgQEB4cgMECBAgQIAAAQIECBAgQIAAAQKJgPCUsBolQIAAAQIECBAgQIAAAQIECBAQntwAAQIECBAgQIAAAQIECBAgQIBAIiA8JaxGCRAgQIAAAQIECBAgQIAAAQIEhCc3QIAAAQIECBAgQIAAAQIECBAgkAgITwmrUQIECBAgQIAAAQIECBAgQIAAAeHJDRAgQIAAAQIECBAgQIAAAQIECCQCwlPCapQAAQIECBAgQIAAAQIECBAgQEB4cgMECBAgQIAAAQIECBAgQIAAAQKJgPCUsBolQIAAAQIECBAgQIAAAQIECBAQntwAAQIECBAgQIAAAQIECBAgQIBAIiA8JaxGCRAgQIAAAQIECBAgQIAAAQIEzmvdFAgQIECAAAECBAgQIECAAAECBAiMC/jxNE5qkAABAgQIECBAgAABAgQIECBA4BcQntwBAQIECBAgQIAAAQIECBAgQIBAIiA8JaxGCRAgQIAAAQIECBAgQIAAAQIEhCc3QIAAAQIECBAgQIAAAQIECBAgkAgITwmrUQIECBAgQIAAAQIECBAgQIAAAeHJDRAgQIAAAQIECBAgQIAAAQIECCQCwlPCapQAAQIECBAgQIAAAQIECBAgQEB4cgMECBAgQIAAAQIECBAgQIAAAQKJgPCUsBolQIAAAQIECBAgQIAAAQIECBAQntwAAQIECBAgQIAAAQIECBAgQIBAIiA8JaxGCRAgQIAAAQIECBAgQIAAAQIEhCc3QIAAAQIECBAgQIAAAQIECBAgkAgITwmrUQIECBAgQIAAAQIECBAgQIAAAeHJDRAgQIAAAQIECBAgQIAAAQIECCQCwlPCapQAAQIECBAgQIAAAQIECBAgQEB4cgMECBAgQIAAAQIECBAgQIAAAQKJgPCUsBolQIAAAQIECBAgQIAAAQIECBAQntwAAQIECBAgQIAAAQIECBAgQIBAIiA8JaxGCRAgQIAAAQIECBAgQIAAAQIEhCc3QIAAAQIECBAgQIAAAQIECBAgkAgITwmrUQIECBAgQIAAAQIECBAgQIAAAeHJDRAgQIAAAQIECBAgQIAAAQIECCQCwlPCapQAAQIECBAgQIAAAQIECBAgQEB4cgMECBAgQIAAAQIECBAgQIAAAQKJgPCUsBolQIAAAQIECBAgQIAAAQIECBAQntwAAQIECBAgQIAAAQIECBAgQIBAIiA8JaxGCRAgQIAAAQIECBAgQIAAAQIEhCc3QIAAAQIECBAgQIAAAQIECBAgkAgITwmrUQIECBAgQIAAAQIECBAgQIAAAeHJDRAgQIAAAQIECBAgQIAAAQIECCQCwlPCapQAAQIECBAgQIAAAQIECBAgQEB4cgMECBAgQIAAAQIECBAgQIAAAQKJgPCUsBolQIAAAQIECBAgQIAAAQIECBAQntwAAQIECBAgQIAAAQIECBAgQIBAIiA8JaxGCRAgQIAAAQIECBAgQIAAAQIEhCc3QIAAAQIECBAgQIAAAQIECBAgkAgITwmrUQIECBAgQIAAAQIECBAgQIAAAeHJDRAgQIAAAQIECBAgQIAAAQIECCQCwlPCapQAAQIECBAgQIAAAQIECBAgQEB4cgMECBAgQIAAAQIECBAgQIAAAQKJgPCUsBolQIAAAQIECBAgQIAAAQIECBAQntwAAQIECBAgQIAAAQIECBAgQIBAIiA8JaxGCRAgQIAAAQIECBAgQIAAAQIEhCc3QIAAAQIECBAgQIAAAQIECBAgkAgITwmrUQIECBAgQIAAAQIECBAgQIAAAeHJDRAgQIAAAQIECBAgQIAAAQIECCQCwlPCapQAAQIECBAgQIAAAQIECBAgQEB4cgMECBAgQIAAAQIECBAgQIAAAQKJgPCUsBolQIAAAQIECBAgQIAAAQIECBAQntwAAQIECBAgQIAAAQIECBAgQIBAIiA8JaxGCRAgQIAAAQIECBAgQIAAAQIEhCc3QIAAAQIECBAgQIAAAQIECBAgkAgITwmrUQIECBAgQIAAAQIECBAgQIAAAeHJDRAgQIAAAQIECBAgQIAAAQIECCQCwlPCapQAAQIECBAgQIAAAQIECBAgQEB4cgMECBAgQIAAAQIECBAgQIAAAQKJgPCUsBolQIAAAQIECBAgQIAAAQIECBAQntwAAQIECBAgQIAAAQIECBAgQIBAIiA8JaxGCRAgQIAAAQIECBAgQIAAAQIEhCc3QIAAAQIECBAgQIAAAQIECBAgkAgITwmrUQIECBAgQIAAAQIECBAgQIAAAeHJDRAgQIAAAQIECBAgQIAAAQIECCQCwlPCapQAAQIECBAgQIAAAQIECBAgQEB4cgMECBAgQIAAAQIECBAgQIAAAQKJgPCUsBolQIAAAQIECBAgQIAAAQIECBAQntwAAQIECBAgQIAAAQIECBAgQIBAIiA8JaxGCRAgQIAAAQIECBAgQIAAAQIEhCc3QIAAAQIECBAgQIAAAQIECBAgkAgITwmrUQIECBAgQIAAAQIECBAgQIAAAeHJDRAgQIAAAQIECBAgQIAAAQIECCQCwlPCapQAAQIECBAgQIAAAQIECBAgQEB4cgMECBAgQIAAAQIECBAgQIAAAQKJgPCUsBolQIAAAQIECBAgQIAAAQIECBAQntwAAQIECBAgQIAAAQIECBAgQIBAIiA8JaxGCRAgQIAAAQIECBAgQIAAAQIEhCc3QIAAAQIECBAgQIAAAQIECBAgkAgITwmrUQIECBAgQIAAAQIECBAgQIAAAeHJDRAgQIAAAQIECBAgQIAAAQIECCQCwlPCapQAAQIECBAgQIAAAQIECBAgQEB4cgMECBAgQIAAAQIECBAgQIAAAQKJgPCUsBolQIAAAQIECBAgQIAAAQIECBAQntwAAQIECBAgQIAAAQIECBAgQIBAIiA8JaxGCRAgQIAAAQIECBAgQIAAAQIEhCc3QIAAAQIECBAgQIAAAQIECBAgkAgITwmrUQIECBAgQIAAAQIECBAgQIAAAeHJDRAgQIAAAQIECBAgQIAAAQIECCQCwlPCapQAAQIECBAgQIAAAQIECBAgQEB4cgMECBAgQIAAAQIECBAgQIAAAQKJgPCUsBolQIAAAQIECBAgQIAAAQIECBAQntwAAQIECBAgQIAAAQIECBAgQIBAIiA8JaxGCRAgQIAAAQIECBAgQIAAAQIEhCc3QIAAAQIECBAgQIAAAQIECBAgkAgITwmrUQIECBAgQIAAAQIECBAgQIAAAeHJDRAgQIAAAQIECBAgQIAAAQIECCQCwlPCapQAAQIECBAgQIAAAQIECBAgQEB4cgMECBAgQIAAAQIECBAgQIAAAQKJgPCUsBolQIAAAQIECBAgQIAAAQIECBAQntwAAQIECBAgQIAAAQIECBAgQIBAIiA8JaxGCRAgQIAAAQIECBAgQIAAAQIEhCc3QIAAAQIECBAgQIAAAQIECBAgkAgITwmrUQIECBAgQIAAAQIECBAgQIAAAeHJDRAgQIAAAQIECBAgQIAAAQIECCQCwlPCapQAAQIECBAgQIAAAQIECBAgQEB4cgMECBAgQIAAAQIECBAgQIAAAQKJgPCUsBolQIAAAQIECBAgQIAAAQIECBB4ARnfGYDajN38AAAAAElFTkSuQmCC;rotation=-90;clipPath=inset(0% 0% 0% 23.56%);" parent="1" vertex="1">
          <mxGeometry x="293.81" y="315.53" width="81.96" height="109.04" as="geometry" />
        </mxCell>
        <UserObject label="&lt;font size=&quot;1&quot; style=&quot;&quot;&gt;&lt;b style=&quot;font-size: 9px;&quot;&gt;n latent features = 250&lt;/b&gt;&lt;/font&gt;" placeholders="1" name="Variable" id="ba-Bq80Gi6VDvch43wfu-33">
          <mxCell style="text;html=1;strokeColor=none;fillColor=none;align=center;verticalAlign=middle;whiteSpace=wrap;overflow=hidden;" parent="1" vertex="1">
            <mxGeometry x="293.05" y="345.05" width="84.17" height="50" as="geometry" />
          </mxCell>
        </UserObject>
        <mxCell id="ba-Bq80Gi6VDvch43wfu-34" value="&lt;font size=&quot;1&quot; style=&quot;&quot;&gt;&lt;span style=&quot;font-size: 9px;&quot;&gt;&lt;b&gt;TensorFlow VAE&lt;/b&gt;&lt;/span&gt;&lt;/font&gt;" style="text;whiteSpace=wrap;html=1;align=center;" parent="1" vertex="1">
          <mxGeometry x="290.04999999999995" y="437" width="90.17" height="40" as="geometry" />
        </mxCell>
        <mxCell id="ba-Bq80Gi6VDvch43wfu-35" value="" style="shape=curlyBracket;whiteSpace=wrap;html=1;rounded=1;labelPosition=left;verticalLabelPosition=middle;align=right;verticalAlign=middle;strokeWidth=1;rotation=-90;" parent="1" vertex="1">
          <mxGeometry x="330.13" y="323.88" width="10" height="230.25" as="geometry" />
        </mxCell>
        <mxCell id="rYeBNWI6wvbkBDY8u7WF-26" value="" style="shape=curlyBracket;whiteSpace=wrap;html=1;rounded=1;labelPosition=left;verticalLabelPosition=middle;align=right;verticalAlign=middle;strokeWidth=1;rotation=90;" parent="1" vertex="1">
          <mxGeometry x="330" y="268" width="10" height="109" as="geometry" />
        </mxCell>
        <mxCell id="rYeBNWI6wvbkBDY8u7WF-27" value="&lt;font size=&quot;1&quot; style=&quot;&quot;&gt;&lt;b style=&quot;font-size: 9px;&quot;&gt;Encoded samples&lt;/b&gt;&lt;/font&gt;" style="text;whiteSpace=wrap;html=1;align=center;" parent="1" vertex="1">
          <mxGeometry x="283.89" y="297.53" width="102.5" height="20" as="geometry" />
        </mxCell>
        <mxCell id="rYeBNWI6wvbkBDY8u7WF-2" value="" style="shape=trapezoid;perimeter=trapezoidPerimeter;whiteSpace=wrap;html=1;fixedSize=1;rotation=-90;strokeWidth=1;container=0;" parent="1" vertex="1">
          <mxGeometry x="360" y="340" width="120" height="60" as="geometry" />
        </mxCell>
        <mxCell id="rYeBNWI6wvbkBDY8u7WF-3" value="" style="shape=waypoint;sketch=0;fillStyle=solid;size=6;pointerEvents=1;points=[];fillColor=none;resizable=0;rotatable=0;perimeter=centerPerimeter;snapToPoint=1;rotation=-180;container=0;" parent="1" vertex="1">
          <mxGeometry x="430" y="401" width="20" height="20" as="geometry" />
        </mxCell>
        <mxCell id="rYeBNWI6wvbkBDY8u7WF-4" value="" style="shape=waypoint;sketch=0;fillStyle=solid;size=6;pointerEvents=1;points=[];fillColor=none;resizable=0;rotatable=0;perimeter=centerPerimeter;snapToPoint=1;rotation=-180;container=0;" parent="1" vertex="1">
          <mxGeometry x="430" y="380" width="20" height="20" as="geometry" />
        </mxCell>
        <mxCell id="rYeBNWI6wvbkBDY8u7WF-5" value="" style="shape=waypoint;sketch=0;fillStyle=solid;size=6;pointerEvents=1;points=[];fillColor=none;resizable=0;rotatable=0;perimeter=centerPerimeter;snapToPoint=1;rotation=-180;container=0;" parent="1" vertex="1">
          <mxGeometry x="430" y="360" width="20" height="20" as="geometry" />
        </mxCell>
        <mxCell id="rYeBNWI6wvbkBDY8u7WF-6" value="" style="shape=waypoint;sketch=0;fillStyle=solid;size=6;pointerEvents=1;points=[];fillColor=none;resizable=0;rotatable=0;perimeter=centerPerimeter;snapToPoint=1;rotation=-180;container=0;" parent="1" vertex="1">
          <mxGeometry x="430" y="340" width="20" height="20" as="geometry" />
        </mxCell>
        <mxCell id="rYeBNWI6wvbkBDY8u7WF-7" value="" style="shape=waypoint;sketch=0;fillStyle=solid;size=6;pointerEvents=1;points=[];fillColor=none;resizable=0;rotatable=0;perimeter=centerPerimeter;snapToPoint=1;rotation=-180;container=0;" parent="1" vertex="1">
          <mxGeometry x="430" y="320" width="20" height="20" as="geometry" />
        </mxCell>
        <mxCell id="rYeBNWI6wvbkBDY8u7WF-8" value="" style="shape=waypoint;sketch=0;fillStyle=solid;size=6;pointerEvents=1;points=[];fillColor=none;resizable=0;rotatable=0;perimeter=centerPerimeter;snapToPoint=1;rotation=-180;container=0;" parent="1" vertex="1">
          <mxGeometry x="390" y="380" width="20" height="20" as="geometry" />
        </mxCell>
        <mxCell id="rYeBNWI6wvbkBDY8u7WF-9" value="" style="shape=waypoint;sketch=0;fillStyle=solid;size=6;pointerEvents=1;points=[];fillColor=none;resizable=0;rotatable=0;perimeter=centerPerimeter;snapToPoint=1;rotation=-180;container=0;" parent="1" vertex="1">
          <mxGeometry x="390" y="360" width="20" height="20" as="geometry" />
        </mxCell>
        <mxCell id="rYeBNWI6wvbkBDY8u7WF-10" value="" style="shape=waypoint;sketch=0;fillStyle=solid;size=6;pointerEvents=1;points=[];fillColor=none;resizable=0;rotatable=0;perimeter=centerPerimeter;snapToPoint=1;rotation=-180;container=0;" parent="1" vertex="1">
          <mxGeometry x="390" y="340" width="20" height="20" as="geometry" />
        </mxCell>
        <mxCell id="rYeBNWI6wvbkBDY8u7WF-11" value="" style="endArrow=none;html=1;rounded=0;exitX=0.722;exitY=0.544;exitDx=0;exitDy=0;exitPerimeter=0;" parent="1" source="rYeBNWI6wvbkBDY8u7WF-7" target="rYeBNWI6wvbkBDY8u7WF-8" edge="1">
          <mxGeometry width="50" height="50" relative="1" as="geometry">
            <mxPoint x="370" y="350" as="sourcePoint" />
            <mxPoint x="320" y="400" as="targetPoint" />
          </mxGeometry>
        </mxCell>
        <mxCell id="rYeBNWI6wvbkBDY8u7WF-12" value="" style="endArrow=none;html=1;rounded=0;" parent="1" source="rYeBNWI6wvbkBDY8u7WF-6" edge="1">
          <mxGeometry width="50" height="50" relative="1" as="geometry">
            <mxPoint x="440" y="330" as="sourcePoint" />
            <mxPoint x="400" y="390" as="targetPoint" />
          </mxGeometry>
        </mxCell>
        <mxCell id="rYeBNWI6wvbkBDY8u7WF-13" value="" style="endArrow=none;html=1;rounded=0;" parent="1" source="rYeBNWI6wvbkBDY8u7WF-5" edge="1">
          <mxGeometry width="50" height="50" relative="1" as="geometry">
            <mxPoint x="440" y="330" as="sourcePoint" />
            <mxPoint x="400" y="390" as="targetPoint" />
          </mxGeometry>
        </mxCell>
        <mxCell id="rYeBNWI6wvbkBDY8u7WF-14" value="" style="endArrow=none;html=1;rounded=0;exitX=0.744;exitY=0.478;exitDx=0;exitDy=0;exitPerimeter=0;" parent="1" source="rYeBNWI6wvbkBDY8u7WF-4" edge="1">
          <mxGeometry width="50" height="50" relative="1" as="geometry">
            <mxPoint x="440" y="330" as="sourcePoint" />
            <mxPoint x="400" y="390" as="targetPoint" />
          </mxGeometry>
        </mxCell>
        <mxCell id="rYeBNWI6wvbkBDY8u7WF-15" value="" style="endArrow=none;html=1;rounded=0;" parent="1" source="rYeBNWI6wvbkBDY8u7WF-3" edge="1">
          <mxGeometry width="50" height="50" relative="1" as="geometry">
            <mxPoint x="440" y="330" as="sourcePoint" />
            <mxPoint x="400" y="390" as="targetPoint" />
          </mxGeometry>
        </mxCell>
        <mxCell id="rYeBNWI6wvbkBDY8u7WF-16" value="" style="endArrow=none;html=1;rounded=0;" parent="1" edge="1">
          <mxGeometry width="50" height="50" relative="1" as="geometry">
            <mxPoint x="440" y="390" as="sourcePoint" />
            <mxPoint x="400" y="370" as="targetPoint" />
          </mxGeometry>
        </mxCell>
        <mxCell id="rYeBNWI6wvbkBDY8u7WF-17" value="" style="endArrow=none;html=1;rounded=0;" parent="1" edge="1">
          <mxGeometry width="50" height="50" relative="1" as="geometry">
            <mxPoint x="440" y="370" as="sourcePoint" />
            <mxPoint x="400" y="350" as="targetPoint" />
          </mxGeometry>
        </mxCell>
        <mxCell id="rYeBNWI6wvbkBDY8u7WF-18" value="" style="endArrow=none;html=1;rounded=0;exitX=0.589;exitY=0.722;exitDx=0;exitDy=0;exitPerimeter=0;entryX=0.5;entryY=0.5;entryDx=0;entryDy=0;entryPerimeter=0;" parent="1" source="rYeBNWI6wvbkBDY8u7WF-3" target="rYeBNWI6wvbkBDY8u7WF-9" edge="1">
          <mxGeometry width="50" height="50" relative="1" as="geometry">
            <mxPoint x="410" y="380" as="sourcePoint" />
            <mxPoint x="370" y="360" as="targetPoint" />
          </mxGeometry>
        </mxCell>
        <mxCell id="rYeBNWI6wvbkBDY8u7WF-19" value="" style="endArrow=none;html=1;rounded=0;" parent="1" source="rYeBNWI6wvbkBDY8u7WF-3" edge="1">
          <mxGeometry width="50" height="50" relative="1" as="geometry">
            <mxPoint x="400" y="370" as="sourcePoint" />
            <mxPoint x="400" y="350" as="targetPoint" />
          </mxGeometry>
        </mxCell>
        <mxCell id="rYeBNWI6wvbkBDY8u7WF-20" value="" style="endArrow=none;html=1;rounded=0;" parent="1" source="rYeBNWI6wvbkBDY8u7WF-4" target="rYeBNWI6wvbkBDY8u7WF-10" edge="1">
          <mxGeometry width="50" height="50" relative="1" as="geometry">
            <mxPoint x="390" y="360" as="sourcePoint" />
            <mxPoint x="350" y="340" as="targetPoint" />
          </mxGeometry>
        </mxCell>
        <mxCell id="rYeBNWI6wvbkBDY8u7WF-21" value="" style="endArrow=none;html=1;rounded=0;exitX=0.344;exitY=0.656;exitDx=0;exitDy=0;exitPerimeter=0;" parent="1" source="rYeBNWI6wvbkBDY8u7WF-5" target="rYeBNWI6wvbkBDY8u7WF-9" edge="1">
          <mxGeometry width="50" height="50" relative="1" as="geometry">
            <mxPoint x="430" y="380" as="sourcePoint" />
            <mxPoint x="390" y="340" as="targetPoint" />
          </mxGeometry>
        </mxCell>
        <mxCell id="rYeBNWI6wvbkBDY8u7WF-22" value="" style="endArrow=none;html=1;rounded=0;exitX=0.567;exitY=0.256;exitDx=0;exitDy=0;exitPerimeter=0;" parent="1" source="rYeBNWI6wvbkBDY8u7WF-6" target="rYeBNWI6wvbkBDY8u7WF-9" edge="1">
          <mxGeometry width="50" height="50" relative="1" as="geometry">
            <mxPoint x="420" y="370" as="sourcePoint" />
            <mxPoint x="380" y="330" as="targetPoint" />
          </mxGeometry>
        </mxCell>
        <mxCell id="rYeBNWI6wvbkBDY8u7WF-23" value="" style="endArrow=none;html=1;rounded=0;" parent="1" target="rYeBNWI6wvbkBDY8u7WF-10" edge="1">
          <mxGeometry width="50" height="50" relative="1" as="geometry">
            <mxPoint x="440" y="350" as="sourcePoint" />
            <mxPoint x="370" y="320" as="targetPoint" />
          </mxGeometry>
        </mxCell>
        <mxCell id="rYeBNWI6wvbkBDY8u7WF-24" value="" style="endArrow=none;html=1;rounded=0;exitX=0.656;exitY=0.5;exitDx=0;exitDy=0;exitPerimeter=0;entryX=0.322;entryY=0.633;entryDx=0;entryDy=0;entryPerimeter=0;" parent="1" source="rYeBNWI6wvbkBDY8u7WF-7" target="rYeBNWI6wvbkBDY8u7WF-10" edge="1">
          <mxGeometry width="50" height="50" relative="1" as="geometry">
            <mxPoint x="400" y="350" as="sourcePoint" />
            <mxPoint x="360" y="310" as="targetPoint" />
          </mxGeometry>
        </mxCell>
        <mxCell id="rYeBNWI6wvbkBDY8u7WF-25" value="" style="endArrow=none;html=1;rounded=0;exitX=0.5;exitY=0.278;exitDx=0;exitDy=0;exitPerimeter=0;" parent="1" source="rYeBNWI6wvbkBDY8u7WF-7" edge="1">
          <mxGeometry width="50" height="50" relative="1" as="geometry">
            <mxPoint x="430" y="320" as="sourcePoint" />
            <mxPoint x="400" y="370" as="targetPoint" />
          </mxGeometry>
        </mxCell>
        <mxCell id="rYeBNWI6wvbkBDY8u7WF-29" value="" style="shape=trapezoid;perimeter=trapezoidPerimeter;whiteSpace=wrap;html=1;fixedSize=1;rotation=90;strokeWidth=1;container=0;" parent="1" vertex="1">
          <mxGeometry x="190" y="340" width="120" height="60" as="geometry" />
        </mxCell>
        <mxCell id="rYeBNWI6wvbkBDY8u7WF-30" value="" style="shape=waypoint;sketch=0;fillStyle=solid;size=6;pointerEvents=1;points=[];fillColor=none;resizable=0;rotatable=0;perimeter=centerPerimeter;snapToPoint=1;rotation=0;container=0;" parent="1" vertex="1">
          <mxGeometry x="220" y="319" width="20" height="20" as="geometry" />
        </mxCell>
        <mxCell id="rYeBNWI6wvbkBDY8u7WF-31" value="" style="shape=waypoint;sketch=0;fillStyle=solid;size=6;pointerEvents=1;points=[];fillColor=none;resizable=0;rotatable=0;perimeter=centerPerimeter;snapToPoint=1;rotation=0;container=0;" parent="1" vertex="1">
          <mxGeometry x="220" y="340" width="20" height="20" as="geometry" />
        </mxCell>
        <mxCell id="rYeBNWI6wvbkBDY8u7WF-32" value="" style="shape=waypoint;sketch=0;fillStyle=solid;size=6;pointerEvents=1;points=[];fillColor=none;resizable=0;rotatable=0;perimeter=centerPerimeter;snapToPoint=1;rotation=0;container=0;" parent="1" vertex="1">
          <mxGeometry x="220" y="360" width="20" height="20" as="geometry" />
        </mxCell>
        <mxCell id="rYeBNWI6wvbkBDY8u7WF-33" value="" style="shape=waypoint;sketch=0;fillStyle=solid;size=6;pointerEvents=1;points=[];fillColor=none;resizable=0;rotatable=0;perimeter=centerPerimeter;snapToPoint=1;rotation=0;container=0;" parent="1" vertex="1">
          <mxGeometry x="220" y="380" width="20" height="20" as="geometry" />
        </mxCell>
        <mxCell id="rYeBNWI6wvbkBDY8u7WF-34" value="" style="shape=waypoint;sketch=0;fillStyle=solid;size=6;pointerEvents=1;points=[];fillColor=none;resizable=0;rotatable=0;perimeter=centerPerimeter;snapToPoint=1;rotation=0;container=0;" parent="1" vertex="1">
          <mxGeometry x="220" y="400" width="20" height="20" as="geometry" />
        </mxCell>
        <mxCell id="rYeBNWI6wvbkBDY8u7WF-35" value="" style="shape=waypoint;sketch=0;fillStyle=solid;size=6;pointerEvents=1;points=[];fillColor=none;resizable=0;rotatable=0;perimeter=centerPerimeter;snapToPoint=1;rotation=0;container=0;" parent="1" vertex="1">
          <mxGeometry x="260" y="340" width="20" height="20" as="geometry" />
        </mxCell>
        <mxCell id="rYeBNWI6wvbkBDY8u7WF-36" value="" style="shape=waypoint;sketch=0;fillStyle=solid;size=6;pointerEvents=1;points=[];fillColor=none;resizable=0;rotatable=0;perimeter=centerPerimeter;snapToPoint=1;rotation=0;container=0;" parent="1" vertex="1">
          <mxGeometry x="260" y="360" width="20" height="20" as="geometry" />
        </mxCell>
        <mxCell id="rYeBNWI6wvbkBDY8u7WF-37" value="" style="shape=waypoint;sketch=0;fillStyle=solid;size=6;pointerEvents=1;points=[];fillColor=none;resizable=0;rotatable=0;perimeter=centerPerimeter;snapToPoint=1;rotation=0;container=0;" parent="1" vertex="1">
          <mxGeometry x="260" y="380" width="20" height="20" as="geometry" />
        </mxCell>
        <mxCell id="rYeBNWI6wvbkBDY8u7WF-38" value="" style="endArrow=none;html=1;rounded=0;exitX=0.722;exitY=0.544;exitDx=0;exitDy=0;exitPerimeter=0;" parent="1" source="rYeBNWI6wvbkBDY8u7WF-34" target="rYeBNWI6wvbkBDY8u7WF-35" edge="1">
          <mxGeometry width="50" height="50" relative="1" as="geometry">
            <mxPoint x="300" y="390" as="sourcePoint" />
            <mxPoint x="350" y="340" as="targetPoint" />
          </mxGeometry>
        </mxCell>
        <mxCell id="rYeBNWI6wvbkBDY8u7WF-39" value="" style="endArrow=none;html=1;rounded=0;" parent="1" source="rYeBNWI6wvbkBDY8u7WF-33" edge="1">
          <mxGeometry width="50" height="50" relative="1" as="geometry">
            <mxPoint x="230" y="410" as="sourcePoint" />
            <mxPoint x="270" y="350" as="targetPoint" />
          </mxGeometry>
        </mxCell>
        <mxCell id="rYeBNWI6wvbkBDY8u7WF-40" value="" style="endArrow=none;html=1;rounded=0;" parent="1" source="rYeBNWI6wvbkBDY8u7WF-32" edge="1">
          <mxGeometry width="50" height="50" relative="1" as="geometry">
            <mxPoint x="230" y="410" as="sourcePoint" />
            <mxPoint x="270" y="350" as="targetPoint" />
          </mxGeometry>
        </mxCell>
        <mxCell id="rYeBNWI6wvbkBDY8u7WF-41" value="" style="endArrow=none;html=1;rounded=0;exitX=0.744;exitY=0.478;exitDx=0;exitDy=0;exitPerimeter=0;" parent="1" source="rYeBNWI6wvbkBDY8u7WF-31" edge="1">
          <mxGeometry width="50" height="50" relative="1" as="geometry">
            <mxPoint x="230" y="410" as="sourcePoint" />
            <mxPoint x="270" y="350" as="targetPoint" />
          </mxGeometry>
        </mxCell>
        <mxCell id="rYeBNWI6wvbkBDY8u7WF-42" value="" style="endArrow=none;html=1;rounded=0;" parent="1" source="rYeBNWI6wvbkBDY8u7WF-30" edge="1">
          <mxGeometry width="50" height="50" relative="1" as="geometry">
            <mxPoint x="230" y="410" as="sourcePoint" />
            <mxPoint x="270" y="350" as="targetPoint" />
          </mxGeometry>
        </mxCell>
        <mxCell id="rYeBNWI6wvbkBDY8u7WF-43" value="" style="endArrow=none;html=1;rounded=0;" parent="1" edge="1">
          <mxGeometry width="50" height="50" relative="1" as="geometry">
            <mxPoint x="230" y="350" as="sourcePoint" />
            <mxPoint x="270" y="370" as="targetPoint" />
          </mxGeometry>
        </mxCell>
        <mxCell id="rYeBNWI6wvbkBDY8u7WF-44" value="" style="endArrow=none;html=1;rounded=0;" parent="1" edge="1">
          <mxGeometry width="50" height="50" relative="1" as="geometry">
            <mxPoint x="230" y="370" as="sourcePoint" />
            <mxPoint x="270" y="390" as="targetPoint" />
          </mxGeometry>
        </mxCell>
        <mxCell id="rYeBNWI6wvbkBDY8u7WF-45" value="" style="endArrow=none;html=1;rounded=0;exitX=0.589;exitY=0.722;exitDx=0;exitDy=0;exitPerimeter=0;entryX=0.5;entryY=0.5;entryDx=0;entryDy=0;entryPerimeter=0;" parent="1" source="rYeBNWI6wvbkBDY8u7WF-30" target="rYeBNWI6wvbkBDY8u7WF-36" edge="1">
          <mxGeometry width="50" height="50" relative="1" as="geometry">
            <mxPoint x="260" y="360" as="sourcePoint" />
            <mxPoint x="300" y="380" as="targetPoint" />
          </mxGeometry>
        </mxCell>
        <mxCell id="rYeBNWI6wvbkBDY8u7WF-46" value="" style="endArrow=none;html=1;rounded=0;" parent="1" source="rYeBNWI6wvbkBDY8u7WF-30" edge="1">
          <mxGeometry width="50" height="50" relative="1" as="geometry">
            <mxPoint x="270" y="370" as="sourcePoint" />
            <mxPoint x="270" y="390" as="targetPoint" />
          </mxGeometry>
        </mxCell>
        <mxCell id="rYeBNWI6wvbkBDY8u7WF-47" value="" style="endArrow=none;html=1;rounded=0;" parent="1" source="rYeBNWI6wvbkBDY8u7WF-31" target="rYeBNWI6wvbkBDY8u7WF-37" edge="1">
          <mxGeometry width="50" height="50" relative="1" as="geometry">
            <mxPoint x="280" y="380" as="sourcePoint" />
            <mxPoint x="320" y="400" as="targetPoint" />
          </mxGeometry>
        </mxCell>
        <mxCell id="rYeBNWI6wvbkBDY8u7WF-48" value="" style="endArrow=none;html=1;rounded=0;exitX=0.344;exitY=0.656;exitDx=0;exitDy=0;exitPerimeter=0;" parent="1" source="rYeBNWI6wvbkBDY8u7WF-32" target="rYeBNWI6wvbkBDY8u7WF-36" edge="1">
          <mxGeometry width="50" height="50" relative="1" as="geometry">
            <mxPoint x="240" y="360" as="sourcePoint" />
            <mxPoint x="280" y="400" as="targetPoint" />
          </mxGeometry>
        </mxCell>
        <mxCell id="rYeBNWI6wvbkBDY8u7WF-49" value="" style="endArrow=none;html=1;rounded=0;exitX=0.567;exitY=0.256;exitDx=0;exitDy=0;exitPerimeter=0;" parent="1" source="rYeBNWI6wvbkBDY8u7WF-33" target="rYeBNWI6wvbkBDY8u7WF-36" edge="1">
          <mxGeometry width="50" height="50" relative="1" as="geometry">
            <mxPoint x="250" y="370" as="sourcePoint" />
            <mxPoint x="290" y="410" as="targetPoint" />
          </mxGeometry>
        </mxCell>
        <mxCell id="rYeBNWI6wvbkBDY8u7WF-50" value="" style="endArrow=none;html=1;rounded=0;" parent="1" target="rYeBNWI6wvbkBDY8u7WF-37" edge="1">
          <mxGeometry width="50" height="50" relative="1" as="geometry">
            <mxPoint x="230" y="390" as="sourcePoint" />
            <mxPoint x="300" y="420" as="targetPoint" />
          </mxGeometry>
        </mxCell>
        <mxCell id="rYeBNWI6wvbkBDY8u7WF-51" value="" style="endArrow=none;html=1;rounded=0;exitX=0.656;exitY=0.5;exitDx=0;exitDy=0;exitPerimeter=0;entryX=0.322;entryY=0.633;entryDx=0;entryDy=0;entryPerimeter=0;" parent="1" source="rYeBNWI6wvbkBDY8u7WF-34" target="rYeBNWI6wvbkBDY8u7WF-37" edge="1">
          <mxGeometry width="50" height="50" relative="1" as="geometry">
            <mxPoint x="270" y="390" as="sourcePoint" />
            <mxPoint x="310" y="430" as="targetPoint" />
          </mxGeometry>
        </mxCell>
        <mxCell id="rYeBNWI6wvbkBDY8u7WF-52" value="" style="endArrow=none;html=1;rounded=0;exitX=0.5;exitY=0.278;exitDx=0;exitDy=0;exitPerimeter=0;" parent="1" source="rYeBNWI6wvbkBDY8u7WF-34" edge="1">
          <mxGeometry width="50" height="50" relative="1" as="geometry">
            <mxPoint x="240" y="420" as="sourcePoint" />
            <mxPoint x="270" y="370" as="targetPoint" />
          </mxGeometry>
        </mxCell>
      </root>
    </mxGraphModel>
  </diagram>
</mxfile>
